<?xml version="1.0" encoding="utf-8"?>
<!-- Generator: Adobe Illustrator 21.0.0, SVG Export Plug-In . SVG Version: 6.00 Build 0)  -->
<svg version="1.1" id="Layer_1" xmlns="http://www.w3.org/2000/svg" xmlns:xlink="http://www.w3.org/1999/xlink" x="0px" y="0px"
	 viewBox="0 0 543 368.5" style="enable-background:new 0 0 543 368.5;" xml:space="preserve">
<style type="text/css">
	.st0{fill:#BFC1C3;}
	.st1{fill:#313131;enable-background:new    ;}
	.st2{fill:#FFFFFF;}
	.st3{fill:#FFFFFF;stroke:#A7A7A8;stroke-miterlimit:10;}
	.st4{fill:#009347;stroke:#FFFFFF;stroke-miterlimit:10;}
	.st5{fill:#D2D2D2;}
	.st6{fill:#0A0A0A;}
	.st7{fill:none;}
	.st8{enable-background:new    ;}
	.st9{fill:#C2F297;}
	.st10{fill:none;stroke:#A7A7A8;stroke-width:4;stroke-miterlimit:10;}
</style>
<g>
	<path class="st0" d="M483.3,230.9c0,2.5-2.6,4.7-5.7,4.7H6.6c-3.1,0-5.7-2.1-5.7-4.7V7c0-2.5,2.6-4.7,5.7-4.7h471
		c3.1,0,5.7,2.1,5.7,4.7V230.9z"/>
</g>
<rect x="6.2" y="35.3" class="st1" width="472.7" height="194.9"/>
<circle class="st2" cx="15.4" cy="18.3" r="8.3"/>
<circle class="st2" cx="39.8" cy="18.3" r="8.3"/>
<circle class="st2" cx="64.2" cy="18.3" r="8.3"/>
<g>
	<path class="st0" d="M542,362.4c0,3.1-2.6,5.7-5.7,5.7h-471c-3.1,0-5.7-2.6-5.7-5.7V89.7c0-3.1,2.6-5.7,5.7-5.7h471
		c3.1,0,5.7,2.6,5.7,5.7V362.4z"/>
</g>
<rect x="115" y="114.3" class="st3" width="421.9" height="48.4"/>
<rect x="64.2" y="168.3" class="st3" width="472.7" height="193.7"/>
<rect x="77.9" y="299.4" class="st4" width="202.8" height="49.1"/>
<rect x="78.9" y="270.7" class="st5" width="285.3" height="15.2"/>
<rect x="78.9" y="247.2" class="st5" width="361.3" height="15.2"/>
<rect x="78.9" y="223.7" class="st5" width="316.1" height="15.2"/>
<rect x="64.4" y="168.7" class="st6" width="472" height="38.9"/>
<rect x="77.2" y="127.8" class="st7" width="432.5" height="29.8"/>
<g class="st8">
	<path d="M127.8,127.8h2.3v7.2c0.5-0.6,1.1-1.1,1.8-1.4c0.7-0.3,1.5-0.5,2.3-0.5c0.8,0,1.5,0.1,2,0.4c0.6,0.3,1.1,0.6,1.5,1
		s0.7,0.9,0.9,1.5c0.2,0.6,0.3,1.2,0.3,1.8v9.5h-2.3v-8.8c0-0.6-0.1-1.1-0.2-1.6c-0.2-0.4-0.4-0.8-0.6-1.1c-0.3-0.3-0.6-0.5-0.9-0.6
		s-0.7-0.2-1.1-0.2c-0.4,0-0.9,0.1-1.3,0.2c-0.4,0.2-0.8,0.4-1.1,0.7s-0.6,0.7-0.8,1.2c-0.2,0.5-0.3,1.1-0.3,1.7v8.3h-2.3V127.8z"/>
	<path d="M146.6,144c0,0.2,0,0.5,0,0.7c0,0.2,0.1,0.4,0.2,0.5s0.3,0.3,0.5,0.4c0.2,0.1,0.6,0.1,1,0.1c0.1,0,0.2,0,0.4,0
		c0.2,0,0.3,0,0.5,0s0.3,0,0.5-0.1c0.2,0,0.3,0,0.4-0.1l0.2,2c-0.3,0-0.5,0.1-0.8,0.1c-0.2,0-0.5,0-0.8,0.1s-0.6,0-0.9,0
		c-0.6,0-1.1-0.1-1.5-0.2s-0.8-0.3-1.1-0.6c-0.3-0.3-0.5-0.6-0.7-1c-0.2-0.4-0.2-0.9-0.2-1.5v-9h-2.6v-2h2.6v-4.6l2.3-0.8v5.4h3.9v2
		h-3.9V144z"/>
	<path d="M156.9,144c0,0.2,0,0.5,0,0.7c0,0.2,0.1,0.4,0.2,0.5s0.3,0.3,0.5,0.4c0.2,0.1,0.6,0.1,1,0.1c0.1,0,0.2,0,0.4,0
		c0.2,0,0.3,0,0.5,0s0.3,0,0.5-0.1c0.2,0,0.3,0,0.4-0.1l0.2,2c-0.3,0-0.5,0.1-0.8,0.1c-0.2,0-0.5,0-0.8,0.1s-0.6,0-0.9,0
		c-0.6,0-1.1-0.1-1.5-0.2s-0.8-0.3-1.1-0.6c-0.3-0.3-0.5-0.6-0.7-1c-0.2-0.4-0.2-0.9-0.2-1.5v-9H152v-2h2.6v-4.6l2.3-0.8v5.4h3.9v2
		h-3.9V144z"/>
	<path d="M166,133.5v1.6c0.4-0.6,1-1,1.7-1.4c0.7-0.3,1.5-0.5,2.4-0.5c0.9,0,1.7,0.2,2.4,0.5s1.4,0.9,1.9,1.5
		c0.5,0.6,0.9,1.4,1.2,2.3s0.4,1.9,0.4,2.9s-0.1,2-0.4,2.9s-0.7,1.6-1.2,2.3c-0.5,0.6-1.1,1.1-1.9,1.5s-1.5,0.5-2.4,0.5
		c-0.9,0-1.7-0.2-2.4-0.5c-0.7-0.3-1.3-0.8-1.7-1.4v5.9h-2.3v-18.2H166z M173.6,140.4c0-0.7-0.1-1.4-0.3-2c-0.2-0.6-0.4-1.2-0.8-1.6
		c-0.3-0.5-0.8-0.8-1.3-1.1c-0.5-0.3-1.1-0.4-1.7-0.4c-0.6,0-1.1,0.1-1.6,0.3c-0.5,0.2-0.8,0.5-1.2,0.9c-0.3,0.4-0.5,0.8-0.7,1.3
		s-0.2,1-0.2,1.6v2.3c0,0.6,0.1,1.1,0.2,1.6s0.4,0.9,0.7,1.3c0.3,0.4,0.7,0.7,1.2,0.9c0.5,0.2,1,0.3,1.6,0.3c0.6,0,1.2-0.1,1.7-0.4
		c0.5-0.3,0.9-0.6,1.3-1.1s0.6-1,0.8-1.6s0.3-1.3,0.3-2V140.4z"/>
	<path d="M188.8,143.6c0,0.7-0.1,1.2-0.4,1.8c-0.3,0.5-0.7,1-1.1,1.3c-0.5,0.4-1,0.6-1.6,0.8c-0.6,0.2-1.2,0.3-1.9,0.3
		c-1,0-2-0.2-2.9-0.5c-0.9-0.4-1.8-0.9-2.5-1.5l1.3-1.6c0.2,0.2,0.5,0.4,0.8,0.6c0.3,0.2,0.6,0.4,1,0.6s0.7,0.3,1.1,0.4
		c0.4,0.1,0.8,0.2,1.3,0.2c0.4,0,0.7,0,1.1-0.1s0.6-0.2,0.9-0.4c0.3-0.2,0.5-0.4,0.6-0.7s0.2-0.6,0.2-0.9c0-0.4-0.1-0.7-0.2-0.9
		c-0.2-0.2-0.4-0.5-0.6-0.6c-0.3-0.2-0.6-0.3-1-0.5c-0.4-0.1-0.7-0.3-1.1-0.4l-0.9-0.3c-0.5-0.2-1-0.4-1.4-0.6
		c-0.5-0.2-0.9-0.5-1.2-0.8s-0.6-0.7-0.8-1.1c-0.2-0.4-0.3-0.9-0.3-1.5c0-0.5,0.1-0.9,0.3-1.4c0.2-0.5,0.5-0.9,0.9-1.3
		c0.4-0.4,0.9-0.7,1.6-0.9c0.6-0.2,1.4-0.3,2.3-0.3c1,0,1.8,0.2,2.7,0.5c0.8,0.3,1.5,0.7,2.1,1.2l-1.2,1.7c-0.2-0.2-0.4-0.4-0.7-0.5
		c-0.3-0.2-0.6-0.3-0.9-0.5s-0.6-0.2-1-0.3s-0.7-0.1-1-0.1c-0.5,0-0.9,0.1-1.3,0.2c-0.3,0.1-0.6,0.3-0.8,0.4s-0.4,0.4-0.5,0.6
		c-0.1,0.2-0.1,0.5-0.1,0.7c0,0.3,0.1,0.6,0.2,0.8c0.1,0.2,0.3,0.4,0.5,0.6s0.5,0.3,0.8,0.4c0.3,0.1,0.6,0.2,0.9,0.3l1.1,0.4
		c0.5,0.2,1,0.4,1.5,0.6c0.5,0.2,0.9,0.4,1.2,0.7c0.4,0.3,0.8,0.7,1,1.2C188.6,142.4,188.8,142.9,188.8,143.6z"/>
	<path d="M192.3,135.1c0-0.2,0-0.4,0.1-0.6c0.1-0.2,0.2-0.4,0.3-0.5c0.1-0.1,0.3-0.3,0.5-0.3c0.2-0.1,0.4-0.1,0.6-0.1
		c0.2,0,0.4,0,0.6,0.1c0.2,0.1,0.4,0.2,0.5,0.3c0.1,0.1,0.3,0.3,0.3,0.5c0.1,0.2,0.1,0.4,0.1,0.6c0,0.2,0,0.4-0.1,0.6
		c-0.1,0.2-0.2,0.4-0.3,0.5c-0.1,0.1-0.3,0.3-0.5,0.3c-0.2,0.1-0.4,0.1-0.6,0.1c-0.2,0-0.4,0-0.6-0.1c-0.2-0.1-0.4-0.2-0.5-0.3
		c-0.1-0.1-0.3-0.3-0.3-0.5C192.3,135.5,192.3,135.3,192.3,135.1z M192.3,146.1c0-0.2,0-0.4,0.1-0.6c0.1-0.2,0.2-0.4,0.3-0.5
		c0.1-0.1,0.3-0.3,0.5-0.3c0.2-0.1,0.4-0.1,0.6-0.1c0.2,0,0.4,0,0.6,0.1c0.2,0.1,0.4,0.2,0.5,0.3c0.1,0.1,0.3,0.3,0.3,0.5
		c0.1,0.2,0.1,0.4,0.1,0.6c0,0.2,0,0.4-0.1,0.6c-0.1,0.2-0.2,0.4-0.3,0.5c-0.1,0.1-0.3,0.3-0.5,0.3c-0.2,0.1-0.4,0.1-0.6,0.1
		c-0.2,0-0.4,0-0.6-0.1c-0.2-0.1-0.4-0.2-0.5-0.3s-0.3-0.3-0.3-0.5C192.3,146.5,192.3,146.3,192.3,146.1z"/>
	<path d="M205.4,127.8h2.4l-6.9,19.6h-2.4L205.4,127.8z"/>
	<path d="M213.5,127.8h2.4l-6.9,19.6h-2.4L213.5,127.8z"/>
	<path d="M229.1,147.4h-2.3v-8.8c0-0.6-0.1-1.1-0.2-1.6c-0.2-0.4-0.4-0.8-0.6-1c-0.3-0.3-0.5-0.5-0.9-0.6c-0.3-0.1-0.7-0.2-1.1-0.2
		s-0.8,0.1-1.1,0.2s-0.7,0.4-1,0.7c-0.3,0.3-0.5,0.7-0.7,1.2c-0.2,0.5-0.3,1.1-0.3,1.8v8.3h-2.3v-14h2.3v1.6c0.5-0.6,1-1.1,1.6-1.4
		s1.3-0.5,2-0.5c0.3,0,0.6,0,1,0.1s0.7,0.2,1.1,0.4c0.4,0.2,0.7,0.4,1,0.7s0.5,0.7,0.7,1.1c0.3-0.4,0.5-0.8,0.9-1.1
		c0.3-0.3,0.7-0.5,1.1-0.7s0.8-0.3,1.1-0.4s0.8-0.1,1.2-0.1c0.8,0,1.4,0.1,2,0.4c0.6,0.3,1.1,0.6,1.5,1c0.4,0.4,0.7,0.9,0.9,1.5
		c0.2,0.6,0.3,1.2,0.3,1.8v9.6h-2.3v-8.8c0-0.6-0.1-1.1-0.2-1.6c-0.2-0.4-0.4-0.8-0.6-1c-0.3-0.3-0.6-0.5-0.9-0.6
		c-0.3-0.1-0.7-0.2-1.1-0.2c-0.4,0-0.8,0.1-1.1,0.2c-0.4,0.2-0.7,0.4-1,0.7c-0.3,0.3-0.5,0.7-0.7,1.2s-0.3,1.1-0.3,1.8V147.4z"/>
	<path d="M239.8,133.5h2.6l3.4,11.6l3.3-11.6h2.6l-5.1,16.1c-0.2,0.5-0.4,0.9-0.6,1.2c-0.2,0.3-0.5,0.6-0.8,0.8s-0.7,0.3-1,0.4
		c-0.4,0.1-0.8,0.1-1.2,0.1c-0.4,0-0.8,0-1.2-0.1s-0.8-0.1-1.3-0.2l0.3-2c0.2,0,0.4,0.1,0.6,0.1c0.2,0,0.4,0.1,0.6,0.1
		c0.2,0,0.4,0,0.7,0c0.5,0,0.9-0.1,1.2-0.3s0.5-0.6,0.6-1.1l0.1-0.6L239.8,133.5z"/>
	<path d="M252.9,138.4h5.9v2h-5.9V138.4z"/>
	<path d="M269.4,146c-0.4,0.5-1,0.9-1.7,1.2s-1.5,0.5-2.5,0.5c-0.7,0-1.3-0.1-1.9-0.3c-0.6-0.2-1.1-0.5-1.5-0.8
		c-0.4-0.4-0.8-0.8-1-1.3c-0.2-0.5-0.4-1.1-0.4-1.8c0-0.5,0.1-1,0.3-1.5c0.2-0.5,0.4-0.8,0.8-1.2c0.3-0.3,0.7-0.6,1.2-0.8
		c0.5-0.2,1-0.4,1.5-0.4l4.9-0.7V138c0-0.5-0.1-1-0.2-1.3s-0.4-0.6-0.7-0.9s-0.6-0.4-1-0.5c-0.4-0.1-0.8-0.1-1.2-0.1
		c-0.8,0-1.5,0.1-2.2,0.3s-1.3,0.5-1.8,0.8l-0.9-1.8c0.8-0.5,1.6-0.8,2.5-1c0.9-0.2,1.7-0.3,2.6-0.3c1.7,0,3,0.4,3.9,1.2
		c0.9,0.8,1.3,1.9,1.3,3.4v6.4c0,0.5,0.1,0.9,0.3,1.2c0.2,0.3,0.5,0.6,0.9,0.7l-1.3,1.6c-0.4-0.1-0.8-0.3-1.1-0.6
		C269.8,146.9,269.5,146.5,269.4,146L269.4,146z M265.3,141.2c-0.4,0.1-0.7,0.1-1,0.2s-0.6,0.2-0.8,0.4c-0.2,0.2-0.4,0.4-0.5,0.6
		c-0.1,0.2-0.2,0.5-0.2,0.9c0,0.4,0.1,0.8,0.2,1.1s0.4,0.6,0.6,0.8c0.3,0.2,0.6,0.4,0.9,0.5c0.4,0.1,0.7,0.2,1.1,0.2
		c0.4,0,0.8-0.1,1.3-0.2c0.4-0.1,0.8-0.3,1.1-0.5s0.6-0.5,0.8-0.8s0.3-0.7,0.3-1.1v-2.7L265.3,141.2z"/>
	<path d="M277.8,133.5v1.6c0.4-0.6,1-1,1.7-1.4c0.7-0.3,1.5-0.5,2.4-0.5c0.9,0,1.7,0.2,2.5,0.5c0.7,0.4,1.4,0.9,1.9,1.5
		c0.5,0.6,0.9,1.4,1.2,2.3s0.4,1.9,0.4,2.9s-0.1,2-0.4,2.9s-0.7,1.6-1.2,2.3c-0.5,0.6-1.1,1.1-1.9,1.5c-0.7,0.4-1.5,0.5-2.5,0.5
		c-0.9,0-1.7-0.2-2.4-0.5c-0.7-0.3-1.3-0.8-1.7-1.4v5.9h-2.3v-18.2H277.8z M285.5,140.4c0-0.7-0.1-1.4-0.3-2
		c-0.2-0.6-0.4-1.2-0.8-1.6c-0.3-0.5-0.8-0.8-1.3-1.1c-0.5-0.3-1.1-0.4-1.7-0.4c-0.6,0-1.1,0.1-1.6,0.3s-0.8,0.5-1.2,0.9
		s-0.5,0.8-0.7,1.3c-0.2,0.5-0.2,1-0.2,1.6v2.3c0,0.6,0.1,1.1,0.2,1.6c0.2,0.5,0.4,0.9,0.7,1.3s0.7,0.7,1.2,0.9s1,0.3,1.6,0.3
		c0.6,0,1.2-0.1,1.7-0.4c0.5-0.3,0.9-0.6,1.3-1.1c0.3-0.5,0.6-1,0.8-1.6c0.2-0.6,0.3-1.3,0.3-2V140.4z"/>
	<path d="M293.6,133.5v1.6c0.4-0.6,1-1,1.7-1.4c0.7-0.3,1.5-0.5,2.4-0.5c0.9,0,1.7,0.2,2.4,0.5c0.7,0.4,1.4,0.9,1.9,1.5
		c0.5,0.6,0.9,1.4,1.2,2.3s0.4,1.9,0.4,2.9s-0.1,2-0.4,2.9s-0.7,1.6-1.2,2.3c-0.5,0.6-1.1,1.1-1.9,1.5c-0.7,0.4-1.5,0.5-2.4,0.5
		c-0.9,0-1.7-0.2-2.4-0.5c-0.7-0.3-1.3-0.8-1.7-1.4v5.9h-2.3v-18.2H293.6z M301.2,140.4c0-0.7-0.1-1.4-0.3-2
		c-0.2-0.6-0.4-1.2-0.8-1.6c-0.3-0.5-0.8-0.8-1.3-1.1s-1.1-0.4-1.7-0.4c-0.6,0-1.1,0.1-1.6,0.3c-0.5,0.2-0.8,0.5-1.2,0.9
		c-0.3,0.4-0.5,0.8-0.7,1.3c-0.2,0.5-0.2,1-0.2,1.6v2.3c0,0.6,0.1,1.1,0.2,1.6c0.2,0.5,0.4,0.9,0.7,1.3c0.3,0.4,0.7,0.7,1.2,0.9
		c0.5,0.2,1,0.3,1.6,0.3c0.6,0,1.2-0.1,1.7-0.4s0.9-0.6,1.3-1.1c0.3-0.5,0.6-1,0.8-1.6c0.2-0.6,0.3-1.3,0.3-2V140.4z"/>
	<path d="M307,146.1c0-0.2,0-0.4,0.1-0.6c0.1-0.2,0.2-0.4,0.3-0.5c0.1-0.1,0.3-0.3,0.5-0.3c0.2-0.1,0.4-0.1,0.6-0.1s0.4,0,0.6,0.1
		c0.2,0.1,0.4,0.2,0.5,0.3c0.1,0.1,0.3,0.3,0.3,0.5c0.1,0.2,0.1,0.4,0.1,0.6c0,0.2,0,0.4-0.1,0.6c-0.1,0.2-0.2,0.4-0.3,0.5
		s-0.3,0.3-0.5,0.3c-0.2,0.1-0.4,0.1-0.6,0.1s-0.4,0-0.6-0.1c-0.2-0.1-0.4-0.2-0.5-0.3s-0.3-0.3-0.3-0.5
		C307,146.5,307,146.3,307,146.1z"/>
	<path d="M315.9,140.5c0,0.7,0.1,1.4,0.3,2c0.2,0.6,0.4,1.2,0.8,1.6c0.3,0.5,0.8,0.8,1.3,1.1c0.5,0.3,1.1,0.4,1.8,0.4
		c0.4,0,0.8-0.1,1.2-0.2c0.4-0.1,0.7-0.3,1-0.5c0.3-0.2,0.6-0.5,0.8-0.7c0.2-0.3,0.4-0.6,0.6-0.9l1.9,1.1c-0.2,0.5-0.5,0.9-0.9,1.3
		c-0.4,0.4-0.8,0.8-1.3,1c-0.5,0.3-1,0.5-1.6,0.7s-1.2,0.2-1.8,0.2c-1,0-1.8-0.2-2.6-0.5s-1.5-0.9-2-1.5c-0.6-0.6-1-1.4-1.3-2.3
		c-0.3-0.9-0.5-1.9-0.5-2.9c0-1.1,0.2-2,0.5-2.9c0.3-0.9,0.7-1.7,1.3-2.3c0.6-0.6,1.2-1.1,2-1.5s1.7-0.5,2.6-0.5
		c0.6,0,1.2,0.1,1.8,0.2s1.1,0.4,1.6,0.7c0.5,0.3,0.9,0.6,1.3,1c0.4,0.4,0.7,0.9,0.9,1.3l-1.9,1.1c-0.2-0.3-0.4-0.6-0.6-0.9
		c-0.2-0.3-0.5-0.5-0.8-0.7c-0.3-0.2-0.6-0.4-1-0.5c-0.4-0.1-0.8-0.2-1.2-0.2c-0.7,0-1.3,0.1-1.8,0.4c-0.5,0.3-0.9,0.7-1.3,1.1
		c-0.3,0.5-0.6,1-0.8,1.6c-0.2,0.6-0.3,1.3-0.3,2V140.5z"/>
	<path d="M328.6,127.8h2.3v16.5c0,0.2,0,0.4,0.1,0.6c0,0.2,0.1,0.3,0.2,0.4s0.2,0.2,0.4,0.3c0.2,0.1,0.4,0.1,0.7,0.1
		c0.3,0,0.6,0,0.8,0c0.2,0,0.4,0,0.6-0.1l0.2,1.9c-0.3,0-0.5,0.1-0.8,0.1c-0.2,0-0.5,0-0.8,0.1s-0.5,0-0.8,0c-0.4,0-0.8,0-1.2-0.1
		s-0.7-0.3-1-0.5c-0.3-0.2-0.5-0.5-0.6-0.8c-0.2-0.3-0.2-0.8-0.2-1.3V127.8z"/>
	<path d="M341.7,133.2c1,0,1.8,0.2,2.6,0.5s1.5,0.9,2,1.5c0.6,0.6,1,1.4,1.3,2.3c0.3,0.9,0.5,1.9,0.5,2.9c0,1-0.2,2-0.5,2.9
		c-0.3,0.9-0.7,1.7-1.3,2.3c-0.6,0.6-1.2,1.1-2,1.5s-1.7,0.5-2.6,0.5c-1,0-1.8-0.2-2.6-0.5s-1.5-0.9-2-1.5c-0.6-0.6-1-1.4-1.3-2.3
		c-0.3-0.9-0.5-1.9-0.5-2.9c0-1.1,0.2-2,0.5-2.9c0.3-0.9,0.7-1.7,1.3-2.3c0.6-0.6,1.2-1.1,2-1.5S340.7,133.2,341.7,133.2z
		 M341.7,145.7c0.7,0,1.3-0.1,1.8-0.4c0.5-0.3,0.9-0.7,1.3-1.1c0.3-0.5,0.6-1,0.8-1.6c0.2-0.6,0.3-1.3,0.3-2v-0.2
		c0-0.7-0.1-1.4-0.3-2c-0.2-0.6-0.4-1.2-0.8-1.6c-0.3-0.5-0.8-0.8-1.3-1.1c-0.5-0.3-1.1-0.4-1.8-0.4c-0.7,0-1.3,0.1-1.8,0.4
		c-0.5,0.3-0.9,0.7-1.3,1.1c-0.3,0.5-0.6,1-0.8,1.6c-0.2,0.6-0.3,1.3-0.3,2v0.2c0,0.7,0.1,1.3,0.3,2c0.2,0.6,0.4,1.2,0.8,1.6
		c0.3,0.5,0.8,0.9,1.3,1.1C340.5,145.6,341,145.7,341.7,145.7z"/>
	<path d="M362.5,147.4h-2.3v-1.6c-0.5,0.6-1.1,1.1-1.8,1.4c-0.7,0.3-1.5,0.5-2.3,0.5c-0.8,0-1.5-0.1-2-0.4c-0.6-0.3-1.1-0.6-1.5-1
		c-0.4-0.4-0.7-0.9-0.9-1.5c-0.2-0.6-0.3-1.2-0.3-1.8v-9.5h2.3v8.8c0,0.6,0.1,1.1,0.2,1.6c0.2,0.4,0.4,0.8,0.6,1
		c0.3,0.3,0.6,0.5,0.9,0.6c0.4,0.1,0.7,0.2,1.1,0.2c0.5,0,0.9-0.1,1.4-0.2c0.4-0.2,0.8-0.4,1.1-0.7s0.6-0.7,0.8-1.2s0.3-1.1,0.3-1.7
		v-8.3h2.3V147.4z"/>
	<path d="M375.9,145.8c-0.4,0.6-1,1-1.7,1.4c-0.7,0.3-1.5,0.5-2.4,0.5c-0.9,0-1.7-0.2-2.5-0.5s-1.4-0.9-1.9-1.5
		c-0.5-0.6-0.9-1.4-1.2-2.3s-0.4-1.9-0.4-2.9s0.1-2,0.4-2.9s0.7-1.7,1.2-2.3c0.5-0.6,1.1-1.2,1.9-1.5s1.5-0.5,2.5-0.5
		c0.9,0,1.7,0.2,2.4,0.5c0.7,0.3,1.3,0.8,1.7,1.4v-7.2h2.3v19.6h-2.3V145.8z M368.3,140.5c0,0.7,0.1,1.4,0.3,2
		c0.2,0.6,0.4,1.2,0.8,1.6s0.8,0.8,1.2,1.1c0.5,0.3,1.1,0.4,1.7,0.4c0.6,0,1.1-0.1,1.6-0.3c0.5-0.2,0.8-0.5,1.2-0.9
		c0.3-0.4,0.5-0.8,0.7-1.3s0.2-1,0.2-1.6v-2.3c0-0.6-0.1-1.1-0.2-1.6s-0.4-0.9-0.7-1.3c-0.3-0.4-0.7-0.7-1.2-0.9
		c-0.5-0.2-1-0.3-1.6-0.3c-0.6,0-1.2,0.1-1.7,0.4c-0.5,0.3-0.9,0.6-1.2,1.1c-0.3,0.5-0.6,1-0.8,1.6c-0.2,0.6-0.3,1.3-0.3,2V140.5z"
		/>
	<path d="M390.4,146c-0.4,0.5-1,0.9-1.7,1.2c-0.7,0.3-1.5,0.5-2.5,0.5c-0.7,0-1.3-0.1-1.9-0.3s-1.1-0.5-1.5-0.8
		c-0.4-0.4-0.8-0.8-1-1.3c-0.2-0.5-0.4-1.1-0.4-1.8c0-0.5,0.1-1,0.3-1.5c0.2-0.5,0.4-0.8,0.8-1.2c0.3-0.3,0.7-0.6,1.2-0.8
		c0.5-0.2,1-0.4,1.5-0.4l4.9-0.7V138c0-0.5-0.1-1-0.2-1.3s-0.4-0.6-0.7-0.9s-0.6-0.4-1-0.5s-0.8-0.1-1.2-0.1c-0.8,0-1.5,0.1-2.2,0.3
		s-1.3,0.5-1.8,0.8l-0.9-1.8c0.8-0.5,1.6-0.8,2.5-1c0.9-0.2,1.7-0.3,2.6-0.3c1.7,0,3,0.4,3.9,1.2c0.9,0.8,1.3,1.9,1.3,3.4v6.4
		c0,0.5,0.1,0.9,0.3,1.2c0.2,0.3,0.5,0.6,0.9,0.7l-1.3,1.6c-0.4-0.1-0.8-0.3-1.1-0.6S390.5,146.5,390.4,146L390.4,146z M386.3,141.2
		c-0.4,0.1-0.7,0.1-1,0.2c-0.3,0.1-0.6,0.2-0.8,0.4c-0.2,0.2-0.4,0.4-0.5,0.6s-0.2,0.5-0.2,0.9c0,0.4,0.1,0.8,0.2,1.1
		s0.4,0.6,0.6,0.8c0.3,0.2,0.6,0.4,0.9,0.5c0.4,0.1,0.7,0.2,1.1,0.2c0.4,0,0.8-0.1,1.3-0.2c0.4-0.1,0.8-0.3,1.1-0.5s0.6-0.5,0.8-0.8
		s0.3-0.7,0.3-1.1v-2.7L386.3,141.2z"/>
	<path d="M398.8,133.5v1.6c0.4-0.6,1-1,1.7-1.4c0.7-0.3,1.5-0.5,2.4-0.5c0.9,0,1.7,0.2,2.5,0.5c0.7,0.4,1.4,0.9,1.9,1.5
		c0.5,0.6,0.9,1.4,1.2,2.3s0.4,1.9,0.4,2.9s-0.1,2-0.4,2.9s-0.7,1.6-1.2,2.3c-0.5,0.6-1.1,1.1-1.9,1.5c-0.7,0.4-1.5,0.5-2.5,0.5
		c-0.9,0-1.7-0.2-2.4-0.5c-0.7-0.3-1.3-0.8-1.7-1.4v5.9h-2.3v-18.2H398.8z M406.5,140.4c0-0.7-0.1-1.4-0.3-2
		c-0.2-0.6-0.4-1.2-0.8-1.6c-0.3-0.5-0.8-0.8-1.3-1.1c-0.5-0.3-1.1-0.4-1.7-0.4c-0.6,0-1.1,0.1-1.6,0.3s-0.8,0.5-1.2,0.9
		s-0.5,0.8-0.7,1.3c-0.2,0.5-0.2,1-0.2,1.6v2.3c0,0.6,0.1,1.1,0.2,1.6c0.2,0.5,0.4,0.9,0.7,1.3s0.7,0.7,1.2,0.9s1,0.3,1.6,0.3
		c0.6,0,1.2-0.1,1.7-0.4c0.5-0.3,0.9-0.6,1.3-1.1c0.3-0.5,0.6-1,0.8-1.6c0.2-0.6,0.3-1.3,0.3-2V140.4z"/>
	<path d="M414.5,133.5v1.6c0.4-0.6,1-1,1.7-1.4c0.7-0.3,1.5-0.5,2.4-0.5c0.9,0,1.7,0.2,2.4,0.5c0.7,0.4,1.4,0.9,1.9,1.5
		c0.5,0.6,0.9,1.4,1.2,2.3c0.3,0.9,0.4,1.9,0.4,2.9s-0.1,2-0.4,2.9c-0.3,0.9-0.7,1.6-1.2,2.3c-0.5,0.6-1.1,1.1-1.9,1.5
		c-0.7,0.4-1.5,0.5-2.4,0.5c-0.9,0-1.7-0.2-2.4-0.5c-0.7-0.3-1.3-0.8-1.7-1.4v5.9h-2.3v-18.2H414.5z M422.2,140.4
		c0-0.7-0.1-1.4-0.3-2c-0.2-0.6-0.4-1.2-0.8-1.6c-0.3-0.5-0.8-0.8-1.3-1.1s-1.1-0.4-1.7-0.4c-0.6,0-1.1,0.1-1.6,0.3
		c-0.5,0.2-0.8,0.5-1.2,0.9c-0.3,0.4-0.5,0.8-0.7,1.3c-0.2,0.5-0.2,1-0.2,1.6v2.3c0,0.6,0.1,1.1,0.2,1.6c0.2,0.5,0.4,0.9,0.7,1.3
		c0.3,0.4,0.7,0.7,1.2,0.9c0.5,0.2,1,0.3,1.6,0.3c0.6,0,1.2-0.1,1.7-0.4s0.9-0.6,1.3-1.1c0.3-0.5,0.6-1,0.8-1.6
		c0.2-0.6,0.3-1.3,0.3-2V140.4z"/>
	<path d="M437.3,143.6c0,0.7-0.1,1.2-0.4,1.8s-0.7,1-1.1,1.3c-0.5,0.4-1,0.6-1.6,0.8c-0.6,0.2-1.2,0.3-1.9,0.3c-1,0-2-0.2-2.9-0.5
		c-0.9-0.4-1.8-0.9-2.5-1.5l1.3-1.6c0.2,0.2,0.5,0.4,0.8,0.6s0.6,0.4,1,0.6s0.7,0.3,1.1,0.4c0.4,0.1,0.8,0.2,1.3,0.2
		c0.4,0,0.7,0,1.1-0.1c0.3-0.1,0.6-0.2,0.9-0.4c0.3-0.2,0.5-0.4,0.6-0.7s0.2-0.6,0.2-0.9c0-0.4-0.1-0.7-0.2-0.9
		c-0.2-0.2-0.4-0.5-0.7-0.6c-0.3-0.2-0.6-0.3-1-0.5c-0.4-0.1-0.7-0.3-1.1-0.4l-0.9-0.3c-0.5-0.2-1-0.4-1.4-0.6s-0.9-0.5-1.2-0.8
		c-0.4-0.3-0.6-0.7-0.8-1.1c-0.2-0.4-0.3-0.9-0.3-1.5c0-0.5,0.1-0.9,0.3-1.4c0.2-0.5,0.5-0.9,0.9-1.3s0.9-0.7,1.6-0.9
		s1.4-0.3,2.3-0.3c1,0,1.8,0.2,2.7,0.5s1.5,0.7,2.1,1.2l-1.2,1.7c-0.2-0.2-0.4-0.4-0.7-0.5c-0.3-0.2-0.6-0.3-0.9-0.5
		c-0.3-0.1-0.6-0.2-1-0.3c-0.3-0.1-0.7-0.1-1-0.1c-0.5,0-0.9,0.1-1.3,0.2s-0.6,0.3-0.8,0.4s-0.4,0.4-0.5,0.6
		c-0.1,0.2-0.1,0.5-0.1,0.7c0,0.3,0.1,0.6,0.2,0.8c0.1,0.2,0.3,0.4,0.5,0.6c0.2,0.2,0.5,0.3,0.8,0.4c0.3,0.1,0.6,0.2,0.9,0.3
		l1.1,0.4c0.5,0.2,1,0.4,1.5,0.6c0.5,0.2,0.9,0.4,1.2,0.7c0.4,0.3,0.8,0.7,1,1.2C437.2,142.4,437.3,142.9,437.3,143.6z"/>
	<path d="M440.9,146.1c0-0.2,0-0.4,0.1-0.6s0.2-0.4,0.3-0.5c0.1-0.1,0.3-0.3,0.5-0.3c0.2-0.1,0.4-0.1,0.6-0.1s0.4,0,0.6,0.1
		c0.2,0.1,0.4,0.2,0.5,0.3c0.1,0.1,0.3,0.3,0.3,0.5s0.1,0.4,0.1,0.6c0,0.2,0,0.4-0.1,0.6s-0.2,0.4-0.3,0.5s-0.3,0.3-0.5,0.3
		s-0.4,0.1-0.6,0.1s-0.4,0-0.6-0.1s-0.4-0.2-0.5-0.3c-0.1-0.1-0.3-0.3-0.3-0.5S440.9,146.3,440.9,146.1z"/>
	<path d="M457.5,145.8c-0.4,0.6-1,1-1.7,1.4c-0.7,0.3-1.5,0.5-2.4,0.5s-1.7-0.2-2.4-0.5c-0.7-0.4-1.4-0.9-1.9-1.5
		c-0.5-0.6-0.9-1.4-1.2-2.3s-0.4-1.9-0.4-2.9s0.1-2,0.4-2.9s0.7-1.7,1.2-2.3c0.5-0.6,1.1-1.2,1.9-1.5c0.7-0.4,1.5-0.5,2.4-0.5
		s1.7,0.2,2.4,0.5c0.7,0.3,1.3,0.8,1.7,1.4v-7.2h2.3v19.6h-2.3V145.8z M449.8,140.5c0,0.7,0.1,1.4,0.3,2c0.2,0.6,0.4,1.2,0.8,1.6
		c0.3,0.5,0.8,0.8,1.2,1.1c0.5,0.3,1.1,0.4,1.7,0.4c0.6,0,1.1-0.1,1.6-0.3s0.8-0.5,1.2-0.9c0.3-0.4,0.5-0.8,0.7-1.3s0.2-1,0.2-1.6
		v-2.3c0-0.6-0.1-1.1-0.2-1.6s-0.4-0.9-0.7-1.3c-0.3-0.4-0.7-0.7-1.2-0.9s-1-0.3-1.6-0.3c-0.6,0-1.2,0.1-1.7,0.4
		c-0.5,0.3-0.9,0.6-1.2,1.1c-0.3,0.5-0.6,1-0.8,1.6c-0.2,0.6-0.3,1.3-0.3,2V140.5z"/>
	<path d="M463.6,129.4c0-0.2,0-0.4,0.1-0.6s0.2-0.4,0.3-0.5c0.1-0.1,0.3-0.3,0.5-0.3c0.2-0.1,0.4-0.1,0.6-0.1c0.2,0,0.4,0,0.6,0.1
		c0.2,0.1,0.4,0.2,0.5,0.3c0.1,0.1,0.3,0.3,0.3,0.5c0.1,0.2,0.1,0.4,0.1,0.6s0,0.4-0.1,0.6c-0.1,0.2-0.2,0.4-0.3,0.5
		s-0.3,0.3-0.5,0.3c-0.2,0.1-0.4,0.1-0.6,0.1c-0.2,0-0.4,0-0.6-0.1c-0.2-0.1-0.4-0.2-0.5-0.3s-0.3-0.3-0.3-0.5
		C463.6,129.8,463.6,129.6,463.6,129.4z M466.3,147.4H464v-14h2.3V147.4z"/>
	<path d="M469.7,139.7c0-0.9,0.1-1.8,0.4-2.6c0.3-0.8,0.6-1.5,1.1-2.1c0.5-0.6,1.1-1,1.8-1.4c0.7-0.3,1.5-0.5,2.3-0.5
		c0.8,0,1.5,0.1,2.2,0.4c0.7,0.3,1.3,0.8,1.8,1.4v-1.6h2.3v14c0,0.9-0.2,1.6-0.5,2.2c-0.4,0.6-0.8,1.1-1.4,1.4
		c-0.6,0.4-1.2,0.6-1.9,0.8c-0.7,0.2-1.4,0.2-2.2,0.2c-0.4,0-0.8,0-1.3-0.1c-0.4,0-0.9-0.1-1.3-0.2c-0.4-0.1-0.9-0.2-1.3-0.3
		s-0.8-0.3-1.2-0.5l0.8-1.9c0.3,0.1,0.6,0.3,0.9,0.4c0.3,0.1,0.6,0.2,1,0.3c0.4,0.1,0.7,0.2,1.1,0.2c0.4,0.1,0.8,0.1,1.3,0.1
		c0.6,0,1.1-0.1,1.6-0.2c0.5-0.1,0.9-0.3,1.2-0.6s0.6-0.6,0.7-1c0.2-0.4,0.3-0.9,0.3-1.4v-2.7c-0.5,0.7-1.1,1.1-1.8,1.4
		c-0.7,0.3-1.4,0.4-2.2,0.4c-0.9,0-1.6-0.2-2.3-0.5c-0.7-0.3-1.3-0.8-1.8-1.4c-0.5-0.6-0.9-1.3-1.1-2.1S469.7,140.6,469.7,139.7z
		 M479.4,139.6c0-0.6-0.1-1.2-0.2-1.7c-0.1-0.5-0.4-1-0.6-1.4s-0.7-0.7-1.1-0.9c-0.5-0.2-1-0.3-1.6-0.3c-0.6,0-1.2,0.1-1.7,0.3
		c-0.5,0.2-0.9,0.5-1.2,0.9s-0.5,0.9-0.7,1.4c-0.1,0.5-0.2,1.1-0.2,1.7v0.1c0,0.6,0.1,1.2,0.2,1.7c0.1,0.5,0.4,1,0.7,1.4
		c0.3,0.4,0.7,0.7,1.2,0.9c0.5,0.2,1,0.3,1.7,0.3c0.6,0,1.2-0.1,1.6-0.3c0.5-0.2,0.8-0.5,1.1-0.9c0.3-0.4,0.5-0.9,0.6-1.4
		s0.2-1.1,0.2-1.7V139.6z"/>
	<path d="M485.4,129.4c0-0.2,0-0.4,0.1-0.6s0.2-0.4,0.3-0.5c0.1-0.1,0.3-0.3,0.5-0.3c0.2-0.1,0.4-0.1,0.6-0.1c0.2,0,0.4,0,0.6,0.1
		c0.2,0.1,0.4,0.2,0.5,0.3c0.1,0.1,0.3,0.3,0.3,0.5c0.1,0.2,0.1,0.4,0.1,0.6s0,0.4-0.1,0.6c-0.1,0.2-0.2,0.4-0.3,0.5
		s-0.3,0.3-0.5,0.3c-0.2,0.1-0.4,0.1-0.6,0.1c-0.2,0-0.4,0-0.6-0.1c-0.2-0.1-0.4-0.2-0.5-0.3s-0.3-0.3-0.3-0.5
		C485.4,129.8,485.4,129.6,485.4,129.4z M488.1,147.4h-2.3v-14h2.3V147.4z"/>
	<path d="M495.9,144c0,0.2,0,0.5,0,0.7c0,0.2,0.1,0.4,0.2,0.5s0.3,0.3,0.5,0.4c0.2,0.1,0.6,0.1,1,0.1c0.1,0,0.2,0,0.4,0
		c0.2,0,0.3,0,0.5,0c0.2,0,0.3,0,0.5-0.1c0.2,0,0.3,0,0.4-0.1l0.2,2c-0.3,0-0.5,0.1-0.8,0.1c-0.2,0-0.5,0-0.8,0.1s-0.6,0-0.9,0
		c-0.6,0-1.1-0.1-1.5-0.2c-0.4-0.1-0.8-0.3-1.1-0.6c-0.3-0.3-0.5-0.6-0.7-1s-0.2-0.9-0.2-1.5v-9H491v-2h2.6v-4.6l2.3-0.8v5.4h3.9v2
		h-3.9V144z"/>
	<path d="M510.6,146c-0.4,0.5-1,0.9-1.7,1.2c-0.7,0.3-1.5,0.5-2.5,0.5c-0.7,0-1.3-0.1-1.9-0.3s-1.1-0.5-1.5-0.8
		c-0.4-0.4-0.8-0.8-1-1.3c-0.2-0.5-0.4-1.1-0.4-1.8c0-0.5,0.1-1,0.3-1.5c0.2-0.5,0.4-0.8,0.8-1.2c0.3-0.3,0.7-0.6,1.2-0.8
		c0.5-0.2,1-0.4,1.5-0.4l4.9-0.7V138c0-0.5-0.1-1-0.2-1.3c-0.2-0.4-0.4-0.6-0.7-0.9s-0.6-0.4-1-0.5c-0.4-0.1-0.8-0.1-1.2-0.1
		c-0.8,0-1.5,0.1-2.2,0.3s-1.3,0.5-1.8,0.8l-0.9-1.8c0.8-0.5,1.6-0.8,2.5-1c0.9-0.2,1.8-0.3,2.6-0.3c1.7,0,3,0.4,3.9,1.2
		c0.9,0.8,1.3,1.9,1.3,3.4v6.4c0,0.5,0.1,0.9,0.3,1.2s0.5,0.6,0.9,0.7l-1.3,1.6c-0.4-0.1-0.8-0.3-1.1-0.6S510.8,146.5,510.6,146
		L510.6,146z M506.5,141.2c-0.4,0.1-0.7,0.1-1,0.2s-0.6,0.2-0.8,0.4c-0.2,0.2-0.4,0.4-0.5,0.6s-0.2,0.5-0.2,0.9
		c0,0.4,0.1,0.8,0.2,1.1c0.2,0.3,0.4,0.6,0.6,0.8s0.6,0.4,0.9,0.5c0.4,0.1,0.7,0.2,1.1,0.2c0.4,0,0.8-0.1,1.3-0.2
		c0.4-0.1,0.8-0.3,1.1-0.5s0.6-0.5,0.8-0.8c0.2-0.3,0.3-0.7,0.3-1.1v-2.7L506.5,141.2z"/>
	<path d="M516.7,127.8h2.3v16.5c0,0.2,0,0.4,0.1,0.6c0,0.2,0.1,0.3,0.2,0.4c0.1,0.1,0.2,0.2,0.4,0.3c0.2,0.1,0.4,0.1,0.7,0.1
		c0.3,0,0.6,0,0.8,0c0.2,0,0.4,0,0.6-0.1l0.2,1.9c-0.3,0-0.5,0.1-0.8,0.1c-0.2,0-0.5,0-0.8,0.1s-0.5,0-0.8,0c-0.4,0-0.8,0-1.2-0.1
		c-0.4-0.1-0.7-0.3-1-0.5c-0.3-0.2-0.5-0.5-0.6-0.8s-0.2-0.8-0.2-1.3V127.8z"/>
</g>
<circle class="st2" cx="74.1" cy="100" r="8.3"/>
<circle class="st2" cx="98.5" cy="100" r="8.3"/>
<circle class="st2" cx="122.9" cy="100" r="8.3"/>
<g>
	<path class="st2" d="M85.2,183.8c0.8,0.3,1.7-0.1,2-0.8c0.3-0.8-0.1-1.7-0.8-2c-0.8-0.3-1.7,0.1-2,0.8
		C84,182.6,84.4,183.5,85.2,183.8 M81.7,185.8c0.8,0.3,1.7-0.1,2-0.8c0.3-0.8-0.1-1.7-0.8-2c-0.8-0.3-1.7,0.1-2,0.8
		C80.6,184.6,81,185.6,81.7,185.8 M80.7,189.7c0.8,0.3,1.7-0.1,2-0.8c0.3-0.8-0.1-1.7-0.8-2c-0.8-0.3-1.7,0.1-2,0.8
		C79.6,188.5,80,189.4,80.7,189.7 M89,185c0.8,0.3,1.7-0.1,2-0.8c0.3-0.8-0.1-1.7-0.8-2c-0.8-0.3-1.7,0.1-2,0.8
		C87.9,183.8,88.3,184.7,89,185 M102.9,183.8c-0.8,0.3-1.7-0.1-2-0.8c-0.3-0.8,0.1-1.7,0.8-2c0.8-0.3,1.7,0.1,2,0.8
		C104.1,182.6,103.7,183.5,102.9,183.8 M106.4,185.8c-0.8,0.3-1.7-0.1-2-0.8c-0.3-0.8,0-1.7,0.8-2s1.7,0.1,2,0.8
		C107.6,184.6,107.2,185.6,106.4,185.8 M107.4,189.7c-0.8,0.3-1.7-0.1-2-0.8c-0.3-0.8,0.1-1.7,0.8-2c0.8-0.3,1.7,0.1,2,0.8
		C108.5,188.5,108.2,189.4,107.4,189.7 M99.1,185c-0.8,0.3-1.7-0.1-2-0.8c-0.3-0.8,0.1-1.7,0.8-2c0.8-0.3,1.7,0.1,2,0.8
		C100.3,183.8,99.9,184.7,99.1,185 M94.9,181.1l1.9,1v-2.8l-1.9,0.6l-0.2-0.2l0.8-2.4h-2.8l0.8,2.4l-0.2,0.2l-2-0.6v2.8l1.9-1
		l0.2,0.2l-1.1,3.4c-0.1,0.2-0.1,0.3-0.1,0.5c0,0.9,0.7,1.6,1.5,1.8h0.6c0.9-0.1,1.6-0.9,1.6-1.8c0-0.2,0-0.3-0.1-0.5l-1.1-3.4
		C94.7,181.3,94.8,181.2,94.9,181.1 M94.1,197.4c3.6,0,7.1,0.2,10.2,0.7c0.9-3.7,2-5.8,3.1-7.3l-2.1-0.7c0.2,1,0.2,1.6,0,2.2
		c-0.3-0.3-0.6-0.9-0.9-1.9l-1,3.4c0.6-0.4,1.1-0.7,1.6-0.7c-1,2.1-2.1,2.6-2.9,2.4c-0.9-0.2-1.4-1-1.2-1.7c0.2-1,1.3-1.3,1.7-0.1
		c0.9-1.9-0.6-2.5-1.7-1.9c1.6-1.6,1.7-2.9,0.5-4.6c-1.7,1.3-1.8,2.7-1,4.5c-1-1.2-2.6-0.5-2,1.3c0.8-1.2,1.7-0.4,1.6,0.6
		c-0.1,0.9-1.4,1.7-2.9,1.6c-2.2-0.2-2.4-1.7-2.4-3c0.5-0.1,1.5,0.4,2.4,1.6l0.3-3.5c-0.9,0.9-1.7,1.2-2.7,1.2
		c0.3-1,1.7-2.5,1.7-2.5h-4.3c0,0,1.4,1.6,1.7,2.5c-0.9-0.1-1.7-0.2-2.7-1.2l0.3,3.5c0.9-1.2,1.8-1.7,2.4-1.6
		c-0.1,1.3-0.2,2.8-2.4,3c-1.6,0.1-2.8-0.6-2.9-1.6c-0.2-1.1,0.8-1.8,1.6-0.6c0.6-1.9-1-2.5-2-1.3c0.8-1.8,0.8-3.2-1-4.5
		c-1.3,1.7-1.1,3.1,0.5,4.6c-1-0.6-2.6,0.1-1.7,1.9c0.5-1.2,1.5-0.9,1.7,0.1c0.2,0.7-0.3,1.6-1.2,1.7c-0.8,0.1-2-0.4-2.9-2.4
		c0.5,0,1,0.3,1.6,0.7l-1-3.4c-0.2,0.9-0.6,1.6-0.9,1.9c-0.2-0.7-0.2-1.2,0-2.2l-2.1,0.8c1.1,1.5,2.1,3.6,3.1,7.3
		C87,197.7,90.4,197.4,94.1,197.4"/>
</g>
<g>
	<path class="st9" d="M24.9,46c0,0,0,0.1,0,0.1c0,0.2-0.2,0.2-0.2,0.6v1.2c1.9,0.2,3.6,1,4.7,2.4l-1.4,1.7c-0.1,0-0.2-0.1-0.2-0.2
		c0-0.1,0-0.2,0-0.3c0,0,0-0.1-0.1-0.2c-0.7-0.8-1.7-1.4-3-1.6V56c0.7,0.2,1.5,0.5,2.1,0.8C27.5,57,30,58.1,30,61
		c0,2.3-1.7,4.8-5.3,5.3v2h-1.9v-2c-2.2-0.1-4.2-1-5.6-2.5l1.4-1.9c0.2,0.1,0.1,0.3,0.1,0.3c0,0.1,0,0.2,0.1,0.4c0.9,1,2.3,1.8,4,2
		v-7c-0.6-0.2-1.2-0.4-1.8-0.7c-2.7-1.3-3.2-3.1-3.2-4.2c0-2.3,2-4.3,5-4.6V46H24.9z M22.8,49.8c-2,0.2-2.9,1.4-2.9,2.5
		c0,0.7,0.3,1.7,1.7,2.5c0.3,0.2,0.7,0.4,1.1,0.5V49.8z M24.7,64.5c2.1-0.4,3.2-1.8,3.2-3.3c0-0.7-0.2-1.7-1.6-2.5
		c-0.4-0.2-1-0.4-1.6-0.6V64.5z"/>
	<path class="st9" d="M60.3,56.5c-0.3-0.2-0.1-0.5-0.2-0.7c-0.1-0.2-1.3-1.9-3.8-1.9c-2.7,0-4.8,2.1-4.8,5.4c0,3.4,2.2,5.8,5,5.8
		c1.5,0,2.9-0.6,3.9-1.8l1.3,1.5c-1.4,1.5-3.3,2.3-5.4,2.3c-4.1,0-7.2-3.3-7.2-7.7c0-4.4,3.1-7.6,7.3-7.6c2.4,0,4.3,1,5.5,2.7
		L60.3,56.5z"/>
	<path class="st9" d="M78.8,47.4l-1,2.1c-0.1,0-0.2,0-0.3-0.3c0-0.1,0-0.2-0.1-0.4c-0.6-0.9-1.8-1.7-3.2-1.7c-1.2,0-2.3,0.5-2.9,1.6
		c-0.5,1-0.5,2.1-0.5,3.2v1.1h4.8v1.8h-4.8v11.9h-2.2V54.9h-3.2v-1.8h3.2v-1.4c0-1.3,0.1-2.5,0.8-3.7c1-1.7,2.9-2.5,5-2.5
		C76.2,45.4,77.8,46.1,78.8,47.4z"/>
	<path class="st9" d="M99.6,52.2v2.2c1-1.6,2.7-2.6,4.6-2.6c2.9,0,5.9,2.3,5.9,7.5c0,5.4-3.1,7.9-6.1,7.9c-1.8,0-3.4-0.9-4.4-2.3
		v7.3h-2.3l0-19.9H99.6z M100,56c-0.3,0.8-0.4,1.6-0.4,2.9c0,2.1,0,3.3,0.4,4.3c0.6,1.3,2,2,3.3,2c1.4,0,4.4-0.7,4.4-5.3
		c0-5.3-3.1-6-4.4-6C101.9,53.9,100.5,54.7,100,56z"/>
	<path class="st9" d="M115.7,52.2v8.1c0,1,0,2.1,0.5,3.2c0.6,1.2,1.6,1.8,2.8,1.8c1.4,0,2.7-0.9,3.4-2.2c0.5-0.9,0.6-1.8,0.6-2.9v-8
		h2.3v13.3c0,0.4,0,0.9,0.2,1.3H123c-0.1-0.4-0.1-0.8-0.1-1.1l0-1.1c-1,1.6-2.7,2.6-4.5,2.6c-1.9,0-3.7-1.1-4.5-3
		c-0.6-1.3-0.6-2.6-0.6-3.8l0-8.1H115.7z"/>
	<path class="st9" d="M139.8,56.2c-0.1,0-0.2-0.1-0.2-0.3c0-0.1,0-0.2-0.1-0.3c-0.6-0.7-2-2-4.1-2c-1.7,0-3.1,0.8-3.1,2
		c0,0.5,0.3,1.2,1.4,1.8c1.4,0.7,3.7,1,5.4,1.9c1.7,1,2.1,2.3,2.1,3.3c0,2.2-2.1,4.6-6.1,4.6c-2.2,0-4.5-0.7-6.2-2.3l1.3-2.3
		c0.2,0.1,0.1,0.3,0.1,0.3c0,0.1,0,0.2,0.1,0.3c0.5,0.5,2.1,2,4.6,2c2.1,0,3.8-0.9,3.8-2.3c0-0.5-0.3-1.3-1.5-1.9
		c-1.1-0.5-2.7-0.9-3.9-1.3c-0.8-0.3-3.6-1.2-3.6-3.8c0-2.2,2.2-4.1,5.6-4.1c2.2,0,4.1,0.8,5.5,2.3L139.8,56.2z"/>
	<path class="st9" d="M145.6,45.6h2.7c0,0,0,0.1,0,0.1c0,0.2-0.1,0.3-0.2,0.3c-0.1,0.1-0.1,0.2-0.1,0.3v8.5c1.1-1.6,2.9-2.9,4.9-2.9
		c1.7,0,3.2,0.9,3.9,2.6c0.5,1.2,0.5,2.4,0.5,3.5v8.9h-2.3V58c0-1,0-2.3-0.8-3.2c-0.5-0.6-1.2-0.9-2-0.9c-1.5,0-3,1.3-3.5,2
		c-0.6,0.8-0.7,1.5-0.7,2.5v8.4h-2.3V45.6z"/>
	<path class="st9" d="M176.5,52.2h2.1l0,1.4c0.7-1,1.8-1.8,3-1.8c1.3,0,2.4,0.9,2.6,2.1c0.6-1.3,1.9-2.1,3.3-2.1
		c0.8,0,1.7,0.3,2.3,1.2c0.6,1,0.6,2.2,0.6,3.4v10.4h-2.2V56.5c0-0.7,0.1-1.5-0.2-2.1c-0.2-0.5-0.7-0.8-1.2-0.8
		c-0.9,0-1.5,0.9-1.7,1.3c-0.5,0.9-0.6,1.5-0.6,2.3v9.7h-2.2V56.7c0-0.6,0-1.3-0.1-1.9c-0.2-0.8-0.8-1.1-1.4-1.1
		c-0.6,0-1.2,0.4-1.8,1.4c-0.4,0.8-0.5,1.4-0.5,2.1v9.7h-2.1V52.2z"/>
	<path class="st9" d="M195.7,52.2c0,0.3-0.1,0.4-0.1,0.7c0,0.1,0,0.2,0.1,0.3l4.3,10.8l2.8-7.8c0.4-1.3,0.9-2.6,1.1-3.9h2.4
		c-0.4,1.4-0.9,2.8-1.5,4.2l-4.6,12.1c-0.3,0.8-0.6,1.6-1.3,2.3c-1,1.1-2.3,1.6-3.7,1.6c-1.2,0-2.3-0.4-3.2-1.2l1.2-2.1
		c0.2,0.1,0.2,0.4,0.3,0.5c0.1,0.2,0.6,0.9,1.7,0.9c0.7,0,1.4-0.3,2-0.9c0.5-0.5,0.8-1.1,1-1.7l0.5-1.1l-5.9-14.6H195.7z"/>
	<path class="st9" d="M221.1,55.7v2.1h-11.5v-2.1H221.1z"/>
	<path class="st9" d="M231.4,51.9c2.3,0,4.1,0.8,5.1,2.4c0.7,1.1,0.7,2.3,0.7,3.5v9.1h-2.2v-1.6c-1.6,1.3-3.5,2-5.2,2
		c-3.1,0-4.9-2-4.9-4.1c0-1.6,1-3.3,3.4-4.2c1.9-0.7,4.2-0.7,6.3-0.7h0.5v-0.5c0-0.8,0-1.7-0.5-2.5c-0.4-0.7-1.3-1.4-3-1.4
		c-1.4,0-3,0.4-4.2,1.6l-1.1-1.5C227.6,52.5,229.5,51.9,231.4,51.9z M234.6,60c-1.5,0-3.5-0.1-4.8,0.2c-1.8,0.4-2.6,1.6-2.6,2.7
		c0,1.3,1.1,2.5,3.1,2.5c1.9,0,3.3-1.2,3.8-1.7c1-1,1-2,1-2.8v-1H234.6z"/>
	<path class="st9" d="M243.6,52.2v2.2c1-1.6,2.7-2.6,4.6-2.6c2.9,0,5.9,2.3,5.9,7.5c0,5.4-3.1,7.9-6.1,7.9c-1.8,0-3.4-0.9-4.4-2.3
		v7.3h-2.3l0-19.9H243.6z M244,56c-0.3,0.8-0.4,1.6-0.4,2.9c0,2.1,0,3.3,0.4,4.3c0.6,1.3,2,2,3.3,2c1.4,0,4.4-0.7,4.4-5.3
		c0-5.3-3.1-6-4.4-6C245.9,53.9,244.5,54.7,244,56z"/>
	<path class="st9" d="M259.6,52.2v2.2c1-1.6,2.7-2.6,4.6-2.6c2.9,0,5.9,2.3,5.9,7.5c0,5.4-3.1,7.9-6.1,7.9c-1.8,0-3.4-0.9-4.4-2.3
		v7.3h-2.3l0-19.9H259.6z M260,56c-0.3,0.8-0.4,1.6-0.4,2.9c0,2.1,0,3.3,0.4,4.3c0.6,1.3,2,2,3.3,2c1.4,0,4.4-0.7,4.4-5.3
		c0-5.3-3.1-6-4.4-6C261.9,53.9,260.5,54.7,260,56z"/>
</g>
<line class="st10" x1="70.7" y1="137.9" x2="85.3" y2="123.2"/>
<line class="st10" x1="70.7" y1="135" x2="85.3" y2="149.6"/>
<line class="st10" x1="74.7" y1="136.5" x2="105.4" y2="136.7"/>
</svg>
