<?xml version="1.0" encoding="utf-8"?>
<!-- Generator: Adobe Illustrator 21.0.0, SVG Export Plug-In . SVG Version: 6.00 Build 0)  -->
<svg version="1.1" id="Layer_1" xmlns="http://www.w3.org/2000/svg" xmlns:xlink="http://www.w3.org/1999/xlink" x="0px" y="0px"
	 viewBox="0 0 543 368.5" style="enable-background:new 0 0 543 368.5;" xml:space="preserve">
<style type="text/css">
	.st0{fill:none;stroke:#005EA5;stroke-width:7;stroke-miterlimit:10;}
	.st1{fill:#FFFFFF;stroke:#005EA5;stroke-width:4;stroke-miterlimit:10;}
	.st2{fill:#005EA5;}
	.st3{fill:#D1EBFB;}
	.st4{fill:#BFC1C3;stroke:#848484;stroke-width:2;stroke-miterlimit:10;}
	.st5{opacity:0.5;fill:none;stroke:#595959;stroke-width:4;stroke-miterlimit:10;enable-background:new    ;}
	.st6{opacity:0.5;fill:none;stroke:#FFFFFF;stroke-width:2;stroke-miterlimit:10;enable-background:new    ;}
	.st7{fill:#66AA00;}
	.st8{opacity:0.5;fill:#C8F47A;enable-background:new    ;}
	.st9{fill:#A82B00;}
	.st10{opacity:0.5;fill:#F28B7C;enable-background:new    ;}
	.st11{fill:#FFFFFF;}
	.st12{fill:#6AC3EF;}
</style>
<line class="st0" x1="271" y1="287.9" x2="271" y2="167.9"/>
<line class="st0" x1="271" y1="171.9" x2="271" y2="51.9"/>
<line class="st0" x1="339" y1="173.9" x2="339" y2="53.9"/>
<line class="st0" x1="205" y1="166.9" x2="205" y2="46.9"/>
<rect x="3.9" y="150.9" class="st1" width="536.4" height="60"/>
<polygon class="st2" points="450,56.9 392.4,-0.7 392.4,28 149.6,28 149.6,-0.7 92,56.9 149.6,114.5 149.6,86.3 392.4,86.3 
	392.4,114.5 "/>
<path class="st3" d="M498.8,291.9c-4,0-7.8,0.6-11.5,1.6c-7.9-22.4-30.4-38.5-57-38.5c-15.2,0-29,5.3-39.6,14
	c-10.6-8.7-24.4-14-39.6-14s-29,5.3-39.6,14c-10.6-8.7-24.4-14-39.6-14c-0.2,0-0.4,0-0.6,0c-0.2,0-0.4,0-0.6,0
	c-15.2,0-29,5.3-39.6,14c-10.6-8.7-24.4-14-39.6-14s-29,5.3-39.6,14c-10.6-8.7-24.4-14-39.6-14c-26.6,0-49.1,16.2-57,38.5
	c-3.6-1-7.5-1.6-11.5-1.6C22,291.9,4,308.6,4,329.3c0,20.7,18,37.5,40.2,37.5h147.6h79.2c0.2,0,0.4,0,0.6,0c0.2,0,0.4,0,0.6,0h79.2
	h147.6c22.2,0,40.2-16.8,40.2-37.5C539,308.6,521,291.9,498.8,291.9z"/>
<g>
	<g>
		<rect x="-5.8" y="-112.1" class="st4" width="38.5" height="56.4"/>
		<line class="st5" x1="-3" y1="-91.8" x2="28.9" y2="-91.8"/>
		<line class="st6" x1="-2.9" y1="-93.1" x2="29" y2="-93.1"/>
		<line class="st5" x1="-3" y1="-86.4" x2="28.9" y2="-86.4"/>
		<line class="st6" x1="-2.9" y1="-87.7" x2="29" y2="-87.7"/>
		<line class="st5" x1="-3" y1="-81" x2="28.9" y2="-81"/>
		<line class="st6" x1="-2.9" y1="-82.3" x2="29" y2="-82.3"/>
		<line class="st5" x1="-3" y1="-75.6" x2="28.9" y2="-75.6"/>
		<line class="st6" x1="-2.9" y1="-76.9" x2="29" y2="-76.9"/>
		<line class="st5" x1="-3" y1="-70.1" x2="28.9" y2="-70.1"/>
		<line class="st6" x1="-2.9" y1="-71.4" x2="29" y2="-71.4"/>
		<line class="st5" x1="-3" y1="-64.7" x2="28.9" y2="-64.7"/>
		<line class="st6" x1="-2.9" y1="-66" x2="29" y2="-66"/>
		<line class="st5" x1="-3" y1="-59.3" x2="28.9" y2="-59.3"/>
		<line class="st6" x1="-2.9" y1="-60.6" x2="29" y2="-60.6"/>
		<g>
			<circle class="st7" cx="-0.3" cy="-102.4" r="2.4"/>
			<circle class="st8" cx="0" cy="-102.8" r="1.3"/>
		</g>
		<circle class="st9" cx="6.1" cy="-102.4" r="2.4"/>
		<circle class="st10" cx="6.4" cy="-102.8" r="1.3"/>
	</g>
	<g>
		<rect x="56.1" y="-112.1" class="st4" width="38.5" height="56.4"/>
		<line class="st5" x1="58.9" y1="-91.8" x2="90.8" y2="-91.8"/>
		<line class="st6" x1="59" y1="-93.1" x2="90.9" y2="-93.1"/>
		<line class="st5" x1="58.9" y1="-86.4" x2="90.8" y2="-86.4"/>
		<line class="st6" x1="59" y1="-87.7" x2="90.9" y2="-87.7"/>
		<line class="st5" x1="58.9" y1="-81" x2="90.8" y2="-81"/>
		<line class="st6" x1="59" y1="-82.3" x2="90.9" y2="-82.3"/>
		<line class="st5" x1="58.9" y1="-75.6" x2="90.8" y2="-75.6"/>
		<line class="st6" x1="59" y1="-76.9" x2="90.9" y2="-76.9"/>
		<line class="st5" x1="58.9" y1="-70.1" x2="90.8" y2="-70.1"/>
		<line class="st6" x1="59" y1="-71.4" x2="90.9" y2="-71.4"/>
		<line class="st5" x1="58.9" y1="-64.7" x2="90.8" y2="-64.7"/>
		<line class="st6" x1="59" y1="-66" x2="90.9" y2="-66"/>
		<line class="st5" x1="58.9" y1="-59.3" x2="90.8" y2="-59.3"/>
		<line class="st6" x1="59" y1="-60.6" x2="90.9" y2="-60.6"/>
		<g>
			<circle class="st7" cx="61.5" cy="-102.4" r="2.4"/>
			<circle class="st8" cx="61.9" cy="-102.8" r="1.3"/>
		</g>
		<circle class="st9" cx="68" cy="-102.4" r="2.4"/>
		<circle class="st10" cx="68.3" cy="-102.8" r="1.3"/>
	</g>
	<g>
		<rect x="117.4" y="-112.1" class="st4" width="38.5" height="56.4"/>
		<line class="st5" x1="120.3" y1="-91.8" x2="152.1" y2="-91.8"/>
		<line class="st6" x1="120.4" y1="-93.1" x2="152.2" y2="-93.1"/>
		<line class="st5" x1="120.3" y1="-86.4" x2="152.1" y2="-86.4"/>
		<line class="st6" x1="120.4" y1="-87.7" x2="152.2" y2="-87.7"/>
		<line class="st5" x1="120.3" y1="-81" x2="152.1" y2="-81"/>
		<line class="st6" x1="120.4" y1="-82.3" x2="152.2" y2="-82.3"/>
		<line class="st5" x1="120.3" y1="-75.6" x2="152.1" y2="-75.6"/>
		<line class="st6" x1="120.4" y1="-76.9" x2="152.2" y2="-76.9"/>
		<line class="st5" x1="120.3" y1="-70.1" x2="152.1" y2="-70.1"/>
		<line class="st6" x1="120.4" y1="-71.4" x2="152.2" y2="-71.4"/>
		<line class="st5" x1="120.3" y1="-64.7" x2="152.1" y2="-64.7"/>
		<line class="st6" x1="120.4" y1="-66" x2="152.2" y2="-66"/>
		<line class="st5" x1="120.3" y1="-59.3" x2="152.1" y2="-59.3"/>
		<line class="st6" x1="120.4" y1="-60.6" x2="152.2" y2="-60.6"/>
		<g>
			<circle class="st7" cx="122.9" cy="-102.4" r="2.4"/>
			<circle class="st8" cx="123.2" cy="-102.8" r="1.3"/>
		</g>
		<circle class="st9" cx="129.3" cy="-102.4" r="2.4"/>
		<circle class="st10" cx="129.6" cy="-102.8" r="1.3"/>
	</g>
</g>
<g>
	<path class="st2" d="M220.4,169.2c1.3-0.2,2.9-0.4,5-0.4c2.6,0,4.5,0.6,5.7,1.7c1.1,1,1.8,2.4,1.8,4.2c0,1.8-0.5,3.3-1.6,4.3
		c-1.4,1.5-3.6,2.2-6.2,2.2c-0.8,0-1.5,0-2.1-0.2v8.1h-2.6V169.2z M223,179c0.6,0.2,1.3,0.2,2.2,0.2c3.1,0,5.1-1.5,5.1-4.3
		c0-2.7-1.9-4-4.8-4c-1.1,0-2,0.1-2.5,0.2V179z"/>
	<path class="st2" d="M236.1,167.9h2.6v21.3h-2.6V167.9z"/>
	<path class="st2" d="M251.2,189.2l-0.2-1.8h-0.1c-0.8,1.1-2.4,2.2-4.4,2.2c-2.9,0-4.4-2.1-4.4-4.2c0-3.5,3.1-5.4,8.7-5.4v-0.3
		c0-1.2-0.3-3.4-3.3-3.4c-1.3,0-2.8,0.4-3.8,1.1l-0.6-1.7c1.2-0.8,2.9-1.3,4.8-1.3c4.4,0,5.5,3,5.5,5.9v5.4c0,1.3,0.1,2.5,0.2,3.5
		H251.2z M250.8,181.8c-2.9-0.1-6.1,0.4-6.1,3.3c0,1.7,1.1,2.5,2.5,2.5c1.9,0,3.1-1.2,3.5-2.4c0.1-0.3,0.2-0.6,0.2-0.8V181.8z"/>
	<path class="st2" d="M260.7,170.5v4.2h3.8v2h-3.8v7.8c0,1.8,0.5,2.8,2,2.8c0.7,0,1.2-0.1,1.5-0.2l0.1,2c-0.5,0.2-1.3,0.4-2.3,0.4
		c-1.2,0-2.2-0.4-2.8-1.1c-0.8-0.8-1-2.1-1-3.8v-7.9h-2.2v-2h2.2v-3.5L260.7,170.5z"/>
	<path class="st2" d="M267.7,189.2v-12.5h-2v-2h2V174c0-2,0.4-3.9,1.7-5.1c1-1,2.3-1.3,3.5-1.3c0.9,0,1.7,0.2,2.2,0.4l-0.4,2
		c-0.4-0.2-0.9-0.3-1.7-0.3c-2.2,0-2.8,2-2.8,4.2v0.8h3.5v2h-3.5v12.5H267.7z"/>
	<path class="st2" d="M289,181.8c0,5.4-3.7,7.7-7.2,7.7c-3.9,0-7-2.9-7-7.5c0-4.9,3.2-7.7,7.2-7.7C286.1,174.3,289,177.4,289,181.8z
		 M277.4,182c0,3.2,1.8,5.6,4.4,5.6c2.5,0,4.4-2.4,4.4-5.6c0-2.5-1.2-5.6-4.3-5.6S277.4,179.2,277.4,182z"/>
	<path class="st2" d="M292.3,179.2c0-1.7,0-3.2-0.1-4.5h2.3l0.1,2.9h0.1c0.7-2,2.2-3.2,4-3.2c0.3,0,0.5,0,0.8,0.1v2.5
		c-0.3-0.1-0.5-0.1-0.9-0.1c-1.9,0-3.2,1.4-3.5,3.4c-0.1,0.4-0.1,0.8-0.1,1.2v7.7h-2.6V179.2z"/>
	<path class="st2" d="M302.2,178.6c0-1.5,0-2.7-0.1-3.9h2.3l0.1,2.3h0.1c0.8-1.4,2.2-2.7,4.6-2.7c2,0,3.5,1.2,4.1,2.9h0.1
		c0.5-0.8,1-1.4,1.6-1.9c0.9-0.7,1.8-1,3.2-1c1.9,0,4.8,1.3,4.8,6.3v8.5h-2.6V181c0-2.8-1-4.5-3.2-4.5c-1.5,0-2.7,1.1-3.1,2.4
		c-0.1,0.4-0.2,0.8-0.2,1.3v9h-2.6v-8.7c0-2.3-1-4-3-4c-1.7,0-2.8,1.3-3.3,2.6c-0.2,0.4-0.2,0.8-0.2,1.3v8.8h-2.6V178.6z"/>
</g>
<g>
	<path class="st11" d="M203.2,65.2v-8.6L196.8,45h3l2.9,5.6c0.8,1.5,1.4,2.8,2,4.2h0.1c0.6-1.3,1.3-2.6,2-4.2l2.9-5.6h3l-6.8,11.6
		v8.6H203.2z"/>
	<path class="st11" d="M225.7,57.8c0,5.4-3.7,7.7-7.2,7.7c-3.9,0-7-2.9-7-7.5c0-4.9,3.2-7.7,7.2-7.7
		C222.9,50.3,225.7,53.4,225.7,57.8z M214.2,58c0,3.2,1.8,5.6,4.4,5.6c2.5,0,4.4-2.4,4.4-5.6c0-2.5-1.2-5.6-4.3-5.6
		C215.5,52.3,214.2,55.2,214.2,58z"/>
	<path class="st11" d="M241.2,61.2c0,1.5,0,2.8,0.1,4H239l-0.1-2.4h-0.1c-0.7,1.2-2.2,2.7-4.8,2.7c-2.3,0-5-1.3-5-6.4v-8.5h2.6v8
		c0,2.8,0.8,4.6,3.2,4.6c1.8,0,3-1.2,3.5-2.4c0.1-0.4,0.2-0.9,0.2-1.4v-8.9h2.6V61.2z"/>
	<path class="st11" d="M245.6,55.2c0-1.7,0-3.2-0.1-4.5h2.3l0.1,2.9h0.1c0.7-2,2.2-3.2,4-3.2c0.3,0,0.5,0,0.7,0.1v2.5
		c-0.3-0.1-0.5-0.1-0.9-0.1c-1.9,0-3.2,1.4-3.5,3.4c-0.1,0.4-0.1,0.8-0.1,1.2v7.7h-2.6V55.2z"/>
	<path class="st11" d="M261.4,62.5c0.8,0.5,2.2,1,3.5,1c1.9,0,2.8-1,2.8-2.2c0-1.3-0.8-1.9-2.7-2.7c-2.6-0.9-3.8-2.4-3.8-4.1
		c0-2.3,1.9-4.3,5-4.3c1.5,0,2.8,0.4,3.6,0.9l-0.7,1.9c-0.6-0.4-1.6-0.8-3-0.8c-1.6,0-2.4,0.9-2.4,2c0,1.2,0.9,1.7,2.8,2.5
		c2.5,1,3.8,2.2,3.8,4.4c0,2.5-2,4.3-5.4,4.3c-1.6,0-3.1-0.4-4.1-1L261.4,62.5z"/>
	<path class="st11" d="M275.1,58.4c0.1,3.6,2.3,5,5,5c1.9,0,3-0.3,4-0.8l0.4,1.9c-0.9,0.4-2.5,0.9-4.8,0.9c-4.5,0-7.1-2.9-7.1-7.3
		s2.6-7.8,6.8-7.8c4.7,0,6,4.2,6,6.8c0,0.5-0.1,1-0.1,1.2H275.1z M282.8,56.5c0-1.7-0.7-4.3-3.7-4.3c-2.7,0-3.8,2.5-4,4.3H282.8z"/>
	<path class="st11" d="M288.6,55.2c0-1.7,0-3.2-0.1-4.5h2.3l0.1,2.9h0.1c0.7-2,2.2-3.2,4-3.2c0.3,0,0.5,0,0.8,0.1v2.5
		c-0.3-0.1-0.5-0.1-0.9-0.1c-1.9,0-3.2,1.4-3.5,3.4c-0.1,0.4-0.1,0.8-0.1,1.2v7.7h-2.6V55.2z"/>
	<path class="st11" d="M300.2,50.7l2.8,8.2c0.5,1.3,0.9,2.5,1.2,3.7h0.1c0.3-1.2,0.8-2.4,1.2-3.7l2.8-8.2h2.8l-5.7,14.5h-2.5
		l-5.5-14.5H300.2z"/>
	<path class="st11" d="M316.6,46.6c0,0.9-0.6,1.6-1.7,1.6c-0.9,0-1.6-0.7-1.6-1.6c0-0.9,0.7-1.6,1.6-1.6
		C315.9,44.9,316.6,45.7,316.6,46.6z M313.6,65.2V50.7h2.6v14.5H313.6z"/>
	<path class="st11" d="M331,64.6c-0.7,0.4-2.2,0.8-4.2,0.8c-4.4,0-7.2-3-7.2-7.4c0-4.5,3.1-7.7,7.8-7.7c1.6,0,2.9,0.4,3.7,0.8
		l-0.6,2c-0.6-0.4-1.6-0.7-3.1-0.7c-3.3,0-5.1,2.5-5.1,5.5c0,3.4,2.2,5.4,5,5.4c1.5,0,2.5-0.4,3.2-0.7L331,64.6z"/>
	<path class="st11" d="M335.4,58.4c0.1,3.6,2.3,5,5,5c1.9,0,3-0.3,4-0.8l0.5,1.9c-0.9,0.4-2.5,0.9-4.8,0.9c-4.5,0-7.1-2.9-7.1-7.3
		s2.6-7.8,6.8-7.8c4.7,0,6,4.2,6,6.8c0,0.5-0.1,1-0.1,1.2H335.4z M343.1,56.5c0-1.7-0.7-4.3-3.7-4.3c-2.7,0-3.8,2.5-4,4.3H343.1z"/>
</g>
<g>
	<path class="st2" d="M193.1,303.9h14.4v2.3h-5.9v18.7H199v-18.7h-5.9V303.9z"/>
	<path class="st2" d="M210.4,303.9h2.5v7.7c0.5-0.7,1.1-1.2,1.9-1.5s1.6-0.5,2.5-0.5c0.8,0,1.6,0.1,2.2,0.4s1.1,0.6,1.6,1.1
		s0.7,1,0.9,1.6s0.3,1.3,0.3,1.9v10.2h-2.5v-9.4c0-0.7-0.1-1.2-0.2-1.7c-0.2-0.5-0.4-0.8-0.7-1.1c-0.3-0.3-0.6-0.5-1-0.6
		c-0.4-0.1-0.8-0.2-1.2-0.2c-0.5,0-0.9,0.1-1.4,0.3c-0.5,0.2-0.9,0.4-1.2,0.8s-0.7,0.8-0.9,1.3s-0.3,1.1-0.3,1.8v8.9h-2.5V303.9z"/>
	<path class="st2" d="M228.3,318.2c0,0.7,0.2,1.4,0.4,1.9s0.6,1.1,1,1.5c0.4,0.4,0.9,0.8,1.4,1c0.6,0.2,1.2,0.4,1.8,0.4
		c0.8,0,1.6-0.1,2.2-0.4c0.6-0.3,1.2-0.6,1.7-1l1.3,1.8c-0.7,0.5-1.5,1-2.3,1.3c-0.9,0.3-1.9,0.5-3,0.5c-1.1,0-2.1-0.2-2.9-0.6
		c-0.9-0.4-1.6-0.9-2.2-1.6c-0.6-0.7-1.1-1.5-1.4-2.5c-0.3-1-0.5-2-0.5-3.1c0-1.1,0.2-2.2,0.5-3.1c0.3-1,0.8-1.8,1.4-2.5
		c0.6-0.7,1.3-1.2,2.1-1.6c0.8-0.4,1.8-0.6,2.8-0.6c1,0,1.9,0.2,2.7,0.6c0.8,0.4,1.5,0.9,2,1.6c0.6,0.7,1,1.5,1.3,2.5
		c0.3,1,0.4,2,0.4,3.1v0.8H228.3z M232.4,311.8c-0.6,0-1.2,0.1-1.7,0.4s-0.9,0.6-1.3,1s-0.6,0.9-0.8,1.4c-0.2,0.5-0.3,1.1-0.3,1.6
		h7.9c0-0.6-0.1-1.1-0.3-1.7c-0.2-0.5-0.4-1-0.8-1.4c-0.3-0.4-0.7-0.7-1.2-1S233,311.8,232.4,311.8z"/>
	<path class="st2" d="M249,303.9h2.6v21H249V303.9z"/>
	<path class="st2" d="M256.5,309.9h2.5v1.7c0.5-0.7,1.1-1.2,1.9-1.5s1.6-0.5,2.5-0.5c0.8,0,1.6,0.1,2.2,0.4s1.1,0.6,1.6,1.1
		s0.7,1,0.9,1.6s0.3,1.3,0.3,1.9v10.2h-2.5v-9.4c0-0.7-0.1-1.2-0.2-1.7c-0.2-0.5-0.4-0.8-0.7-1.1c-0.3-0.3-0.6-0.5-1-0.6
		c-0.4-0.1-0.8-0.2-1.2-0.2c-0.5,0-0.9,0.1-1.4,0.3c-0.5,0.2-0.9,0.4-1.2,0.8s-0.7,0.8-0.9,1.3s-0.3,1.1-0.3,1.8v8.9h-2.5V309.9z"/>
	<path class="st2" d="M276.6,321.2c0,0.3,0,0.5,0.1,0.7c0,0.2,0.1,0.4,0.2,0.6s0.3,0.3,0.6,0.4s0.6,0.1,1,0.1c0.1,0,0.3,0,0.4,0
		s0.3,0,0.5,0c0.2,0,0.3,0,0.5-0.1c0.2,0,0.3,0,0.4-0.1l0.3,2.2c-0.3,0-0.6,0.1-0.9,0.1c-0.3,0-0.5,0.1-0.8,0.1s-0.6,0-0.9,0
		c-0.6,0-1.1-0.1-1.6-0.2c-0.5-0.1-0.9-0.3-1.2-0.6s-0.6-0.6-0.8-1.1c-0.2-0.4-0.3-1-0.3-1.6v-9.6h-2.8v-2.2h2.8V305l2.5-0.9v5.8
		h4.2v2.2h-4.2V321.2z"/>
	<path class="st2" d="M285.5,318.2c0,0.7,0.2,1.4,0.4,1.9s0.6,1.1,1,1.5c0.4,0.4,0.9,0.8,1.4,1c0.6,0.2,1.2,0.4,1.8,0.4
		c0.8,0,1.6-0.1,2.2-0.4c0.6-0.3,1.2-0.6,1.7-1l1.3,1.8c-0.7,0.5-1.5,1-2.3,1.3c-0.9,0.3-1.9,0.5-3,0.5c-1.1,0-2.1-0.2-2.9-0.6
		c-0.9-0.4-1.6-0.9-2.2-1.6c-0.6-0.7-1.1-1.5-1.4-2.5c-0.3-1-0.5-2-0.5-3.1c0-1.1,0.2-2.2,0.5-3.1c0.3-1,0.8-1.8,1.4-2.5
		c0.6-0.7,1.3-1.2,2.1-1.6c0.8-0.4,1.8-0.6,2.8-0.6c1,0,1.9,0.2,2.7,0.6c0.8,0.4,1.5,0.9,2,1.6c0.6,0.7,1,1.5,1.3,2.5
		c0.3,1,0.4,2,0.4,3.1v0.8H285.5z M289.6,311.8c-0.6,0-1.2,0.1-1.7,0.4s-0.9,0.6-1.3,1s-0.6,0.9-0.8,1.4c-0.2,0.5-0.3,1.1-0.3,1.6
		h7.9c0-0.6-0.1-1.1-0.3-1.7c-0.2-0.5-0.4-1-0.8-1.4c-0.3-0.4-0.7-0.7-1.2-1S290.2,311.8,289.6,311.8z"/>
	<path class="st2" d="M307.2,312.1h-0.4c-0.6,0-1.2,0.1-1.8,0.2s-1.1,0.4-1.5,0.8s-0.8,0.9-1.1,1.6c-0.3,0.7-0.4,1.5-0.4,2.5v7.7
		h-2.5v-15h2.5v2.4c0.2-0.4,0.4-0.8,0.7-1.2s0.7-0.6,1.1-0.8c0.4-0.2,0.8-0.4,1.3-0.5s0.9-0.2,1.4-0.2h0.7V312.1z"/>
	<path class="st2" d="M310,309.9h2.5v1.7c0.5-0.7,1.1-1.2,1.9-1.5s1.6-0.5,2.5-0.5c0.8,0,1.6,0.1,2.2,0.4s1.1,0.6,1.6,1.1
		s0.7,1,0.9,1.6s0.3,1.3,0.3,1.9v10.2h-2.5v-9.4c0-0.7-0.1-1.2-0.2-1.7c-0.2-0.5-0.4-0.8-0.7-1.1c-0.3-0.3-0.6-0.5-1-0.6
		c-0.4-0.1-0.8-0.2-1.2-0.2c-0.5,0-0.9,0.1-1.4,0.3c-0.5,0.2-0.9,0.4-1.2,0.8s-0.7,0.8-0.9,1.3s-0.3,1.1-0.3,1.8v8.9H310V309.9z"/>
	<path class="st2" d="M328,318.2c0,0.7,0.2,1.4,0.4,1.9s0.6,1.1,1,1.5c0.4,0.4,0.9,0.8,1.4,1c0.6,0.2,1.2,0.4,1.8,0.4
		c0.8,0,1.6-0.1,2.2-0.4c0.6-0.3,1.2-0.6,1.7-1l1.3,1.8c-0.7,0.5-1.5,1-2.3,1.3c-0.9,0.3-1.9,0.5-3,0.5c-1.1,0-2.1-0.2-2.9-0.6
		c-0.9-0.4-1.6-0.9-2.2-1.6c-0.6-0.7-1.1-1.5-1.4-2.5c-0.3-1-0.5-2-0.5-3.1c0-1.1,0.2-2.2,0.5-3.1c0.3-1,0.8-1.8,1.4-2.5
		c0.6-0.7,1.3-1.2,2.1-1.6c0.8-0.4,1.8-0.6,2.8-0.6c1,0,1.9,0.2,2.7,0.6c0.8,0.4,1.5,0.9,2,1.6c0.6,0.7,1,1.5,1.3,2.5
		c0.3,1,0.4,2,0.4,3.1v0.8H328z M332.1,311.8c-0.6,0-1.2,0.1-1.7,0.4s-0.9,0.6-1.3,1s-0.6,0.9-0.8,1.4c-0.2,0.5-0.3,1.1-0.3,1.6h7.9
		c0-0.6-0.1-1.1-0.3-1.7c-0.2-0.5-0.4-1-0.8-1.4c-0.3-0.4-0.7-0.7-1.2-1S332.7,311.8,332.1,311.8z"/>
	<path class="st2" d="M345.7,321.2c0,0.3,0,0.5,0.1,0.7c0,0.2,0.1,0.4,0.2,0.6s0.3,0.3,0.6,0.4s0.6,0.1,1,0.1c0.1,0,0.3,0,0.4,0
		s0.3,0,0.5,0c0.2,0,0.3,0,0.5-0.1c0.2,0,0.3,0,0.4-0.1l0.3,2.2c-0.3,0-0.6,0.1-0.9,0.1c-0.3,0-0.5,0.1-0.8,0.1s-0.6,0-0.9,0
		c-0.6,0-1.1-0.1-1.6-0.2c-0.5-0.1-0.9-0.3-1.2-0.6s-0.6-0.6-0.8-1.1c-0.2-0.4-0.3-1-0.3-1.6v-9.6h-2.8v-2.2h2.8V305l2.5-0.9v5.8
		h4.2v2.2h-4.2V321.2z"/>
</g>
<path class="st12" d="M138,238.9"/>
</svg>
