<?xml version="1.0" encoding="utf-8"?>
<!-- Generator: Adobe Illustrator 21.0.0, SVG Export Plug-In . SVG Version: 6.00 Build 0)  -->
<svg version="1.1" id="Layer_1" xmlns="http://www.w3.org/2000/svg" xmlns:xlink="http://www.w3.org/1999/xlink" x="0px" y="0px"
	 viewBox="0 0 543 368.5" style="enable-background:new 0 0 543 368.5;" xml:space="preserve">
<style type="text/css">
	.st0{fill:#005EA5;}
	.st1{fill:#BFC1C3;stroke:#848484;stroke-width:2;stroke-miterlimit:10;}
	.st2{opacity:0.5;fill:none;stroke:#595959;stroke-width:4;stroke-miterlimit:10;enable-background:new    ;}
	.st3{opacity:0.5;fill:none;stroke:#FFFFFF;stroke-width:2;stroke-miterlimit:10;enable-background:new    ;}
	.st4{fill:#66AA00;}
	.st5{opacity:0.5;fill:#C8F47A;enable-background:new    ;}
	.st6{fill:#A82B00;}
	.st7{opacity:0.5;fill:#F28B7C;enable-background:new    ;}
	.st8{fill:none;}
	.st9{fill:#FFFFFF;}
	.st10{font-family:'MyriadPro-Regular';}
	.st11{font-size:40px;}
</style>
<rect x="83.5" y="72.6" class="st0" width="375" height="143.1"/>
<g>
	<g>
		<rect x="101.2" y="141.9" class="st1" width="38.5" height="56.4"/>
		<line class="st2" x1="104" y1="162.2" x2="135.9" y2="162.2"/>
		<line class="st3" x1="104.1" y1="160.9" x2="136" y2="160.9"/>
		<line class="st2" x1="104" y1="167.6" x2="135.9" y2="167.6"/>
		<line class="st3" x1="104.1" y1="166.3" x2="136" y2="166.3"/>
		<line class="st2" x1="104" y1="173" x2="135.9" y2="173"/>
		<line class="st3" x1="104.1" y1="171.7" x2="136" y2="171.7"/>
		<line class="st2" x1="104" y1="178.4" x2="135.9" y2="178.4"/>
		<line class="st3" x1="104.1" y1="177.1" x2="136" y2="177.1"/>
		<line class="st2" x1="104" y1="183.9" x2="135.9" y2="183.9"/>
		<line class="st3" x1="104.1" y1="182.6" x2="136" y2="182.6"/>
		<line class="st2" x1="104" y1="189.3" x2="135.9" y2="189.3"/>
		<line class="st3" x1="104.1" y1="188" x2="136" y2="188"/>
		<line class="st2" x1="104" y1="194.7" x2="135.9" y2="194.7"/>
		<line class="st3" x1="104.1" y1="193.4" x2="136" y2="193.4"/>
		<g>
			<circle class="st4" cx="106.7" cy="151.6" r="2.4"/>
			<circle class="st5" cx="107" cy="151.2" r="1.3"/>
		</g>
		<circle class="st6" cx="113.1" cy="151.6" r="2.4"/>
		<circle class="st7" cx="113.4" cy="151.2" r="1.3"/>
	</g>
	<g>
		<rect x="163.1" y="141.9" class="st1" width="38.5" height="56.4"/>
		<line class="st2" x1="165.9" y1="162.2" x2="197.8" y2="162.2"/>
		<line class="st3" x1="166" y1="160.9" x2="197.9" y2="160.9"/>
		<line class="st2" x1="165.9" y1="167.6" x2="197.8" y2="167.6"/>
		<line class="st3" x1="166" y1="166.3" x2="197.9" y2="166.3"/>
		<line class="st2" x1="165.9" y1="173" x2="197.8" y2="173"/>
		<line class="st3" x1="166" y1="171.7" x2="197.9" y2="171.7"/>
		<line class="st2" x1="165.9" y1="178.4" x2="197.8" y2="178.4"/>
		<line class="st3" x1="166" y1="177.1" x2="197.9" y2="177.1"/>
		<line class="st2" x1="165.9" y1="183.9" x2="197.8" y2="183.9"/>
		<line class="st3" x1="166" y1="182.6" x2="197.9" y2="182.6"/>
		<line class="st2" x1="165.9" y1="189.3" x2="197.8" y2="189.3"/>
		<line class="st3" x1="166" y1="188" x2="197.9" y2="188"/>
		<line class="st2" x1="165.9" y1="194.7" x2="197.8" y2="194.7"/>
		<line class="st3" x1="166" y1="193.4" x2="197.9" y2="193.4"/>
		<g>
			<circle class="st4" cx="168.5" cy="151.6" r="2.4"/>
			<circle class="st5" cx="168.9" cy="151.2" r="1.3"/>
		</g>
		<circle class="st6" cx="175" cy="151.6" r="2.4"/>
		<circle class="st7" cx="175.3" cy="151.2" r="1.3"/>
	</g>
	<g>
		<rect x="224.4" y="141.9" class="st1" width="38.5" height="56.4"/>
		<line class="st2" x1="227.3" y1="162.2" x2="259.1" y2="162.2"/>
		<line class="st3" x1="227.4" y1="160.9" x2="259.2" y2="160.9"/>
		<line class="st2" x1="227.3" y1="167.6" x2="259.1" y2="167.6"/>
		<line class="st3" x1="227.4" y1="166.3" x2="259.2" y2="166.3"/>
		<line class="st2" x1="227.3" y1="173" x2="259.1" y2="173"/>
		<line class="st3" x1="227.4" y1="171.7" x2="259.2" y2="171.7"/>
		<line class="st2" x1="227.3" y1="178.4" x2="259.1" y2="178.4"/>
		<line class="st3" x1="227.4" y1="177.1" x2="259.2" y2="177.1"/>
		<line class="st2" x1="227.3" y1="183.9" x2="259.1" y2="183.9"/>
		<line class="st3" x1="227.4" y1="182.6" x2="259.2" y2="182.6"/>
		<line class="st2" x1="227.3" y1="189.3" x2="259.1" y2="189.3"/>
		<line class="st3" x1="227.4" y1="188" x2="259.2" y2="188"/>
		<line class="st2" x1="227.3" y1="194.7" x2="259.1" y2="194.7"/>
		<line class="st3" x1="227.4" y1="193.4" x2="259.2" y2="193.4"/>
		<g>
			<circle class="st4" cx="229.9" cy="151.6" r="2.4"/>
			<circle class="st5" cx="230.2" cy="151.2" r="1.3"/>
		</g>
		<circle class="st6" cx="236.3" cy="151.6" r="2.4"/>
		<circle class="st7" cx="236.6" cy="151.2" r="1.3"/>
	</g>
</g>
<rect x="92" y="92.9" class="st8" width="183" height="97"/>
<text transform="matrix(1 0 0 1 92 121.2894)" class="st9 st10 st11">Platform</text>
<rect x="144.3" y="-0.4" class="st0" width="253.5" height="64.9"/>
<rect x="169" y="13.9" class="st8" width="292" height="97"/>
<text transform="matrix(1 0 0 1 169 42.2894)" class="st9 st10 st11">Your service</text>
<rect x="-17" y="225.6" class="st0" width="576" height="85.9"/>
<rect x="10" y="238.9" class="st8" width="292" height="97"/>
<text transform="matrix(1 0 0 1 10 267.2894)" class="st9 st10 st11">The internet</text>
</svg>
