<?xml version="1.0" encoding="utf-8"?>
<!-- Generator: Adobe Illustrator 21.0.0, SVG Export Plug-In . SVG Version: 6.00 Build 0)  -->
<svg version="1.1" id="Layer_1" xmlns="http://www.w3.org/2000/svg" xmlns:xlink="http://www.w3.org/1999/xlink" x="0px" y="0px"
	 viewBox="0 0 543 355.6" style="enable-background:new 0 0 543 355.6;" xml:space="preserve">
<style type="text/css">
	.st0{fill:none;stroke:#005EA5;stroke-width:12;stroke-miterlimit:10;}
	.st1{fill:#BFC1C3;stroke:#848484;stroke-width:2;stroke-miterlimit:10;}
	.st2{opacity:0.5;fill:none;stroke:#595959;stroke-width:4;stroke-miterlimit:10;}
	.st3{opacity:0.5;fill:none;stroke:#FFFFFF;stroke-width:2;stroke-miterlimit:10;}
	.st4{fill:#66AA00;}
	.st5{opacity:0.5;fill:#C8F47A;}
	.st6{fill:#A82B00;}
	.st7{opacity:0.5;fill:#F28B7C;}
</style>
<line class="st0" x1="38" y1="61.9" x2="38" y2="27.9"/>
<line class="st0" x1="190.7" y1="61.9" x2="190.7" y2="-1.5"/>
<line class="st0" x1="190.7" y1="256.4" x2="190.7" y2="159.1"/>
<line class="st0" x1="32.8" y1="28.9" x2="338.8" y2="28.9"/>
<line class="st0" x1="202.3" y1="298.9" x2="508.3" y2="298.9"/>
<line class="st0" x1="337.3" y1="61.9" x2="337.3" y2="27.9"/>
<g>
	<rect x="2" y="57.5" class="st1" width="73.8" height="108.2"/>
	<line class="st2" x1="7.3" y1="96.4" x2="68.4" y2="96.4"/>
	<line class="st3" x1="7.5" y1="94" x2="68.6" y2="94"/>
	<line class="st2" x1="7.3" y1="106.8" x2="68.4" y2="106.8"/>
	<line class="st3" x1="7.5" y1="104.4" x2="68.6" y2="104.4"/>
	<line class="st2" x1="7.3" y1="117.2" x2="68.4" y2="117.2"/>
	<line class="st3" x1="7.5" y1="114.7" x2="68.6" y2="114.7"/>
	<line class="st2" x1="7.3" y1="127.6" x2="68.4" y2="127.6"/>
	<line class="st3" x1="7.5" y1="125.1" x2="68.6" y2="125.1"/>
	<line class="st2" x1="7.3" y1="138" x2="68.4" y2="138"/>
	<line class="st3" x1="7.5" y1="135.5" x2="68.6" y2="135.5"/>
	<line class="st2" x1="7.3" y1="148.4" x2="68.4" y2="148.4"/>
	<line class="st3" x1="7.5" y1="145.9" x2="68.6" y2="145.9"/>
	<line class="st2" x1="7.3" y1="158.8" x2="68.4" y2="158.8"/>
	<line class="st3" x1="7.5" y1="156.3" x2="68.6" y2="156.3"/>
	<g>
		<circle class="st4" cx="12.4" cy="76.1" r="4.6"/>
		<circle class="st5" cx="13" cy="75.3" r="2.4"/>
	</g>
	<circle class="st6" cx="24.7" cy="76.1" r="4.6"/>
	<circle class="st7" cx="25.3" cy="75.3" r="2.4"/>
</g>
<g>
	<rect x="150.7" y="57.5" class="st1" width="73.8" height="108.2"/>
	<line class="st2" x1="156.1" y1="96.4" x2="217.2" y2="96.4"/>
	<line class="st3" x1="156.3" y1="94" x2="217.4" y2="94"/>
	<line class="st2" x1="156.1" y1="106.8" x2="217.2" y2="106.8"/>
	<line class="st3" x1="156.3" y1="104.4" x2="217.4" y2="104.4"/>
	<line class="st2" x1="156.1" y1="117.2" x2="217.2" y2="117.2"/>
	<line class="st3" x1="156.3" y1="114.7" x2="217.4" y2="114.7"/>
	<line class="st2" x1="156.1" y1="127.6" x2="217.2" y2="127.6"/>
	<line class="st3" x1="156.3" y1="125.1" x2="217.4" y2="125.1"/>
	<line class="st2" x1="156.1" y1="138" x2="217.2" y2="138"/>
	<line class="st3" x1="156.3" y1="135.5" x2="217.4" y2="135.5"/>
	<line class="st2" x1="156.1" y1="148.4" x2="217.2" y2="148.4"/>
	<line class="st3" x1="156.3" y1="145.9" x2="217.4" y2="145.9"/>
	<line class="st2" x1="156.1" y1="158.8" x2="217.2" y2="158.8"/>
	<line class="st3" x1="156.3" y1="156.3" x2="217.4" y2="156.3"/>
	<g>
		<circle class="st4" cx="161.1" cy="76.1" r="4.6"/>
		<circle class="st5" cx="161.7" cy="75.3" r="2.4"/>
	</g>
	<circle class="st6" cx="173.4" cy="76.1" r="4.6"/>
	<circle class="st7" cx="174" cy="75.3" r="2.4"/>
</g>
<g>
	<rect x="150.7" y="240.9" class="st1" width="73.8" height="108.2"/>
	<line class="st2" x1="156.1" y1="279.8" x2="217.2" y2="279.8"/>
	<line class="st3" x1="156.3" y1="277.4" x2="217.4" y2="277.4"/>
	<line class="st2" x1="156.1" y1="290.2" x2="217.2" y2="290.2"/>
	<line class="st3" x1="156.3" y1="287.7" x2="217.4" y2="287.7"/>
	<line class="st2" x1="156.1" y1="300.6" x2="217.2" y2="300.6"/>
	<line class="st3" x1="156.3" y1="298.1" x2="217.4" y2="298.1"/>
	<line class="st2" x1="156.1" y1="311" x2="217.2" y2="311"/>
	<line class="st3" x1="156.3" y1="308.5" x2="217.4" y2="308.5"/>
	<line class="st2" x1="156.1" y1="321.4" x2="217.2" y2="321.4"/>
	<line class="st3" x1="156.3" y1="318.9" x2="217.4" y2="318.9"/>
	<line class="st2" x1="156.1" y1="331.8" x2="217.2" y2="331.8"/>
	<line class="st3" x1="156.3" y1="329.3" x2="217.4" y2="329.3"/>
	<line class="st2" x1="156.1" y1="342.2" x2="217.2" y2="342.2"/>
	<line class="st3" x1="156.3" y1="339.7" x2="217.4" y2="339.7"/>
	<g>
		<circle class="st4" cx="161.1" cy="259.5" r="4.6"/>
		<circle class="st5" cx="161.7" cy="258.7" r="2.4"/>
	</g>
	<circle class="st6" cx="173.4" cy="259.5" r="4.6"/>
	<circle class="st7" cx="174" cy="258.7" r="2.4"/>
</g>
<g>
	<rect x="298.3" y="57.5" class="st1" width="73.8" height="108.2"/>
	<line class="st2" x1="303.7" y1="96.4" x2="364.8" y2="96.4"/>
	<line class="st3" x1="303.9" y1="94" x2="365" y2="94"/>
	<line class="st2" x1="303.7" y1="106.8" x2="364.8" y2="106.8"/>
	<line class="st3" x1="303.9" y1="104.4" x2="365" y2="104.4"/>
	<line class="st2" x1="303.7" y1="117.2" x2="364.8" y2="117.2"/>
	<line class="st3" x1="303.9" y1="114.7" x2="365" y2="114.7"/>
	<line class="st2" x1="303.7" y1="127.6" x2="364.8" y2="127.6"/>
	<line class="st3" x1="303.9" y1="125.1" x2="365" y2="125.1"/>
	<line class="st2" x1="303.7" y1="138" x2="364.8" y2="138"/>
	<line class="st3" x1="303.9" y1="135.5" x2="365" y2="135.5"/>
	<line class="st2" x1="303.7" y1="148.4" x2="364.8" y2="148.4"/>
	<line class="st3" x1="303.9" y1="145.9" x2="365" y2="145.9"/>
	<line class="st2" x1="303.7" y1="158.8" x2="364.8" y2="158.8"/>
	<line class="st3" x1="303.9" y1="156.3" x2="365" y2="156.3"/>
	<g>
		<circle class="st4" cx="308.7" cy="76.1" r="4.6"/>
		<circle class="st5" cx="309.3" cy="75.3" r="2.4"/>
	</g>
	<circle class="st6" cx="321" cy="76.1" r="4.6"/>
	<circle class="st7" cx="321.6" cy="75.3" r="2.4"/>
</g>
<g>
	<rect x="453.5" y="241.8" class="st1" width="87.5" height="94.3"/>
	<ellipse class="st1" cx="497.4" cy="242.5" rx="43.6" ry="11.3"/>
	<path class="st1" d="M541,273.5c0,6.2-19.5,11.3-43.6,11.3s-43.6-5-43.6-11.3"/>
	<path class="st1" d="M541,304.5c0,6.2-19.5,11.3-43.6,11.3s-43.6-5-43.6-11.3"/>
	<path class="st1" d="M541,334.1c0,6.2-19.5,11.3-43.6,11.3s-43.6-5-43.6-11.3"/>
</g>
</svg>
