<?xml version="1.0" encoding="utf-8"?>
<!-- Generator: Adobe Illustrator 21.0.0, SVG Export Plug-In . SVG Version: 6.00 Build 0)  -->
<svg version="1.1" id="Layer_1" xmlns="http://www.w3.org/2000/svg" xmlns:xlink="http://www.w3.org/1999/xlink" x="0px" y="0px"
	 viewBox="0 0 543 355.6" style="enable-background:new 0 0 543 355.6;" xml:space="preserve">
<style type="text/css">
	.st0{fill:#BFC1C3;}
	.st1{fill:#262626;stroke:#FFFFFF;stroke-miterlimit:10;}
	.st2{fill:none;}
	.st3{opacity:0.4;}
	.st4{fill:#FFFFFF;}
	.st5{font-family:'Inconsolata';}
	.st6{font-size:24px;}
</style>
<g>
	<path class="st0" d="M542,345.1c0,3.8-2.9,7-6.4,7H7.4c-3.5,0-6.4-3.2-6.4-7V7.9c0-3.8,2.9-7,6.4-7h528.2c3.5,0,6.4,3.2,6.4,7
		V345.1z"/>
</g>
<rect x="6.2" y="38.3" class="st1" width="530.1" height="309.5"/>
<rect x="20.7" y="55" class="st2" width="485" height="278.9"/>
<text transform="matrix(1 0 0 1 20.7378 71.0052)" class="st3"><tspan x="0" y="0" class="st4 st5 st6">4</tspan><tspan x="0" y="28.8" class="st4 st5 st6">5</tspan><tspan x="0" y="57.6" class="st4 st5 st6">6</tspan><tspan x="0" y="86.4" class="st4 st5 st6">7</tspan><tspan x="0" y="115.2" class="st4 st5 st6">8</tspan><tspan x="0" y="144" class="st4 st5 st6">9</tspan><tspan x="0" y="172.8" class="st4 st5 st6">10</tspan><tspan x="0" y="201.6" class="st4 st5 st6">11</tspan><tspan x="0" y="230.4" class="st4 st5 st6">12</tspan><tspan x="0" y="259.2" class="st4 st5 st6">13</tspan></text>
<rect x="65.7" y="55" class="st2" width="485" height="278.9"/>
<text transform="matrix(1 0 0 1 65.7378 71.0052)"><tspan x="0" y="0" class="st4 st5 st6">routes:</tspan><tspan x="0" y="28.8" class="st4 st5 st6">- route: www.myapp.example.gov.uk</tspan><tspan x="0" y="86.4" class="st4 st5 st6">instances: 4</tspan><tspan x="0" y="144" class="st4 st5 st6">memory: 1Gb</tspan><tspan x="0" y="201.6" class="st4 st5 st6">services:</tspan><tspan x="0" y="230.4" class="st4 st5 st6">- example_api</tspan></text>
<ellipse class="st4" cx="17.3" cy="20.7" rx="9.3" ry="10.3"/>
<ellipse class="st4" cx="44.6" cy="20.7" rx="9.3" ry="10.3"/>
<ellipse class="st4" cx="72" cy="20.7" rx="9.3" ry="10.3"/>
</svg>
